<svg width="48" height="48" viewBox="0 0 48 48" fill="none" xmlns="http://www.w3.org/2000/svg" xmlns:xlink="http://www.w3.org/1999/xlink">
<path d="M28.86,37.64C28.48,37.64 28.1,37.5 27.8,37.2C27.22,36.62 27.22,35.66 27.8,35.08L38.88,24L27.8,12.92C27.22,12.34 27.22,11.38 27.8,10.8C28.38,10.22 29.34,10.22 29.92,10.8L42.06,22.94C42.64,23.52 42.64,24.48 42.06,25.06L29.92,37.2C29.62,37.5 29.24,37.64 28.86,37.64Z" fill="#C0C0D6"/>
<path d="M40.66,25.5L7,25.5C6.18,25.5 5.5,24.82 5.5,24C5.5,23.18 6.18,22.5 7,22.5L40.66,22.5C41.48,22.5 42.16,23.18 42.16,24C42.16,24.82 41.48,25.5 40.66,25.5Z" fill="#C0C0D6"/>
</svg>
