<svg width="1058" height="810" viewBox="0 0 1058 810" fill="none" xmlns="http://www.w3.org/2000/svg" xmlns:xlink="http://www.w3.org/1999/xlink">
<g filter="url(#filter33_2413)">
<path d="M1058,412C1058,461.706 1017.258,502 967,502C916.742,502 876,461.706 876,412C876,362.294 916.742,322 967,322C1017.258,322 1058,362.294 1058,412Z" fill="url(#pf_0_33_2413)"/>
</g>
<path d="M210.752,0L210.752,808.578L213.752,808.578L213.752,0L210.752,0ZM397.076,0L397.076,808.578L400.076,808.578L400.076,0L397.076,0ZM583.402,0L583.4,808.578L586.4,808.578L586.402,0L583.402,0ZM769.726,0L769.726,808.578L772.726,808.578L772.726,0L769.726,0ZM956.05,0L956.05,808.578L959.05,808.578L959.05,0L956.05,0ZM0,110.922L1008.966,110.922L1008.966,107.922L0,107.922L0,110.922ZM0,262.09L1008.966,262.09L1008.966,259.09L0,259.09L0,262.09ZM0,413.26L1008.966,413.26L1008.966,410.26L0,410.26L0,413.26ZM0,564.428L1008.966,564.428L1008.966,561.428L0,561.428L0,564.428ZM0,715.598L1008.966,715.598L1008.966,712.598L0,712.598L0,715.598Z" fill="url(#ps_0_33_2418)"/>
<path d="M210.251,117.472L210.251,100.194L214.171,100.194L214.171,117.472L210.251,117.472ZM203.572,110.793L203.572,106.873L220.85,106.873L220.85,110.793L203.572,110.793Z" fill="#353E57"/>
<path d="M396.38,117.472L396.38,100.194L400.3,100.194L400.3,117.472L396.38,117.472ZM389.701,110.793L389.701,106.873L406.98,106.873L406.98,110.793L389.701,110.793Z" fill="#353E57"/>
<path d="M582.704,118.351L582.704,101.072L586.624,101.072L586.624,118.351L582.704,118.351ZM576.026,111.671L576.026,107.751L593.304,107.751L593.304,111.671L576.026,111.671Z" fill="#353E57"/>
<path d="M769.22,117.472L769.22,100.194L773.14,100.194L773.14,117.472L769.22,117.472ZM762.542,110.793L762.542,106.873L779.82,106.873L779.82,110.793L762.542,110.793Z" fill="#353E57"/>
<path d="M955.302,117.472L955.302,100.193L959.222,100.193L959.222,117.472L955.302,117.472ZM948.622,110.793L948.622,106.873L965.9,106.873L965.9,110.793L948.622,110.793Z" fill="#353E57"/>
<path d="M210.251,269.169L210.251,251.891L214.171,251.891L214.171,269.169L210.251,269.169ZM203.572,262.49L203.572,258.57L220.85,258.57L220.85,262.49L203.572,262.49Z" fill="#353E57"/>
<path d="M396.38,269.169L396.38,251.891L400.3,251.891L400.3,269.169L396.38,269.169ZM389.701,262.49L389.701,258.57L406.98,258.57L406.98,262.49L389.701,262.49Z" fill="#353E57"/>
<path d="M582.704,270.047L582.704,252.769L586.624,252.769L586.624,270.047L582.704,270.047ZM576.026,263.368L576.026,259.448L593.304,259.448L593.304,263.368L576.026,263.368Z" fill="#353E57"/>
<path d="M769.22,269.169L769.22,251.891L773.14,251.891L773.14,269.169L769.22,269.169ZM762.542,262.49L762.542,258.57L779.82,258.57L779.82,262.49L762.542,262.49Z" fill="#353E57"/>
<path d="M955.302,269.168L955.302,251.89L959.222,251.89L959.222,269.168L955.302,269.168ZM948.622,262.489L948.622,258.569L965.9,258.569L965.9,262.489L948.622,262.489Z" fill="#353E57"/>
<path d="M210.251,420.337L210.251,403.059L214.171,403.059L214.171,420.337L210.251,420.337ZM203.572,413.657L203.572,409.737L220.85,409.737L220.85,413.657L203.572,413.657Z" fill="#353E57"/>
<path d="M396.38,420.337L396.38,403.059L400.3,403.059L400.3,420.337L396.38,420.337ZM389.701,413.657L389.701,409.737L406.98,409.737L406.98,413.657L389.701,413.657Z" fill="#353E57"/>
<path d="M582.704,421.215L582.704,403.937L586.624,403.937L586.624,421.215L582.704,421.215ZM576.026,414.537L576.026,410.617L593.304,410.617L593.304,414.537L576.026,414.537Z" fill="#353E57"/>
<path d="M769.22,420.337L769.22,403.059L773.14,403.059L773.14,420.337L769.22,420.337ZM762.542,413.657L762.542,409.737L779.82,409.737L779.82,413.657L762.542,413.657Z" fill="#353E57"/>
<path d="M955.302,420.337L955.302,403.059L959.222,403.059L959.222,420.337L955.302,420.337ZM948.622,413.657L948.622,409.737L965.9,409.737L965.9,413.657L948.622,413.657Z" fill="#353E57"/>
<path d="M210.251,571.507L210.251,554.227L214.171,554.227L214.171,571.507L210.251,571.507ZM203.572,564.827L203.572,560.907L220.85,560.907L220.85,564.827L203.572,564.827Z" fill="#353E57"/>
<path d="M396.38,571.507L396.38,554.227L400.3,554.227L400.3,571.507L396.38,571.507ZM389.701,564.827L389.701,560.907L406.98,560.907L406.98,564.827L389.701,564.827Z" fill="#353E57"/>
<path d="M582.704,572.385L582.704,555.107L586.624,555.107L586.624,572.385L582.704,572.385ZM576.026,565.705L576.026,561.785L593.304,561.785L593.304,565.705L576.026,565.705Z" fill="#353E57"/>
<path d="M769.22,571.507L769.22,554.227L773.14,554.227L773.14,571.507L769.22,571.507ZM762.542,564.827L762.542,560.907L779.82,560.907L779.82,564.827L762.542,564.827Z" fill="#353E57"/>
<path d="M955.302,571.505L955.302,554.227L959.222,554.227L959.222,571.505L955.302,571.505ZM948.622,564.827L948.622,560.907L965.9,560.907L965.9,564.827L948.622,564.827Z" fill="#353E57"/>
<path d="M210.251,722.675L210.251,705.397L214.171,705.397L214.171,722.675L210.251,722.675ZM203.572,715.995L203.572,712.075L220.85,712.075L220.85,715.995L203.572,715.995Z" fill="#353E57"/>
<path d="M396.38,722.675L396.38,705.397L400.3,705.397L400.3,722.675L396.38,722.675ZM389.701,715.995L389.701,712.075L406.98,712.075L406.98,715.995L389.701,715.995Z" fill="#353E57"/>
<path d="M582.704,723.553L582.704,706.275L586.624,706.275L586.624,723.553L582.704,723.553ZM576.026,716.875L576.026,712.955L593.304,712.955L593.304,716.875L576.026,716.875Z" fill="#353E57"/>
<path d="M769.22,722.675L769.22,705.397L773.14,705.397L773.14,722.675L769.22,722.675ZM762.542,715.995L762.542,712.075L779.82,712.075L779.82,715.995L762.542,715.995Z" fill="#353E57"/>
<path d="M955.302,722.675L955.302,705.397L959.222,705.397L959.222,722.675L955.302,722.675ZM948.622,715.995L948.622,712.075L965.9,712.075L965.9,715.995L948.622,715.995Z" fill="#353E57"/>
<defs>
<filter id="filter33_2413" x="752" y="198" width="339" height="338" filterUnits="userSpaceOnUse" color-interpolation-filters="sRGB">
<feFlood flood-opacity="0" result="BackgroundImageFix"/>
<feBlend mode="normal" in="SourceGraphic" in2="BackgroundImageFix" result="shape"/>
<feGaussianBlur stdDeviation="62" result="0foregroundblur"/>
</filter>
<radialGradient id="pf_0_33_2413" cx="0" cy="0" r="1" gradientUnits="userSpaceOnUse" gradientTransform="matrix(58.5 54.000003 -34.781179 37.679608 483 206)">
<stop stop-color="#F8C300" stop-opacity="0.3"/>
<stop offset="0.24" stop-color="#DA251D" stop-opacity="0.3"/>
<stop offset="0.615" stop-color="#0093DD" stop-opacity="0.3"/>
<stop offset="1" stop-color="#84C225" stop-opacity="0.3"/>
</radialGradient>
<radialGradient id="ps_0_33_2418" cx="0" cy="0" r="1" gradientUnits="userSpaceOnUse" gradientTransform="matrix(0 202.144592 -252.241302 0 252.241 202.145)">
<stop stop-color="#FFFFFF" stop-opacity="0.04"/>
<stop offset="1" stop-color="#FFFFFF" stop-opacity="0.04"/>
</radialGradient>
</defs>
</svg>
