<svg width="42" height="42" viewBox="0 0 42 42" fill="none" xmlns="http://www.w3.org/2000/svg" xmlns:xlink="http://www.w3.org/1999/xlink">
<path d="M32.971,25.148L31.304,22.382C30.954,21.765 30.637,20.598 30.637,19.915L30.637,15.698C30.637,10.265 26.221,5.832 20.771,5.832C15.321,5.832 10.904,10.265 10.904,15.698L10.904,19.915C10.904,20.598 10.588,21.765 10.238,22.365L8.554,25.148C7.888,26.265 7.738,27.498 8.154,28.632C8.554,29.748 9.504,30.615 10.738,31.032C13.971,32.132 17.371,32.665 20.771,32.665C24.171,32.665 27.571,32.132 30.804,31.048C31.971,30.665 32.871,29.782 33.304,28.632C33.737,27.482 33.621,26.215 32.971,25.148Z" stroke="#C0C0D6" stroke-width="1.5" stroke-miterlimit="3.999327"/>
<path d="M24.487,6.533C23.337,6.083 22.087,5.833 20.77,5.833C19.47,5.833 18.22,6.066 17.07,6.533C17.787,5.183 19.204,4.333 20.77,4.333C22.354,4.333 23.754,5.183 24.487,6.533Z" stroke="#C0C0D6" stroke-width="1.5" stroke-miterlimit="3.999327"/>
<path d="M25.453,34.348C24.753,36.282 22.903,37.665 20.736,37.665C19.419,37.665 18.119,37.132 17.203,36.182C16.669,35.682 16.269,35.015 16.036,34.332C16.253,34.365 16.469,34.382 16.703,34.415C17.086,34.465 17.486,34.515 17.886,34.548C18.836,34.632 19.803,34.682 20.769,34.682C21.719,34.682 22.669,34.632 23.603,34.548C23.953,34.515 24.303,34.498 24.636,34.448C24.903,34.415 25.169,34.382 25.453,34.348Z" stroke="#C0C0D6" stroke-width="1.5" stroke-miterlimit="3.999327"/>
<path d="M35.865,8.859C35.865,11.432 33.78,13.517 31.207,13.517C28.634,13.517 26.549,11.432 26.549,8.859C26.549,6.287 28.634,4.201 31.207,4.201C33.78,4.201 35.865,6.287 35.865,8.859Z" fill="#C0C0D6" stroke="#C0C0D6" stroke-width="1.5" stroke-miterlimit="3.999327"/>
</svg>
