<svg width="40" height="40" viewBox="0 0 40 40" fill="none" xmlns="http://www.w3.org/2000/svg" xmlns:xlink="http://www.w3.org/1999/xlink">
<path d="M26.053,21.211L26.053,28.071C26.053,33.787 23.767,36.074 18.05,36.074L11.191,36.074C5.474,36.074 3.188,33.787 3.188,28.071L3.188,21.211C3.188,15.495 5.474,13.208 11.191,13.208L18.05,13.208C23.767,13.208 26.053,15.495 26.053,21.211Z" fill="#1F2020"/>
<g opacity="0.4">
<path d="M27.85,3.409L20.99,3.409C15.355,3.409 13.069,5.646 13.003,11.167L18.05,11.167C24.91,11.167 28.095,14.352 28.095,21.211L28.095,26.258C33.615,26.193 35.853,23.906 35.853,18.271L35.853,11.412C35.853,5.695 33.566,3.409 27.85,3.409Z" fill="#1F2020"/>
</g>
</svg>
