<svg width="42" height="40" viewBox="0 0 42 40" fill="none" xmlns="http://www.w3.org/2000/svg" xmlns:xlink="http://www.w3.org/1999/xlink">
<path d="M26.684,21.264L26.684,28.264C26.684,34.097 24.351,36.431 18.517,36.431L11.517,36.431C5.684,36.431 3.351,34.097 3.351,28.264L3.351,21.264C3.351,15.431 5.684,13.097 11.517,13.097L18.517,13.097C24.351,13.097 26.684,15.431 26.684,21.264Z" fill="#1F2020"/>
<g opacity="0.4">
<path d="M28.517,3.097L21.517,3.097C15.767,3.097 13.434,5.381 13.367,11.014L18.517,11.014C25.517,11.014 28.767,14.264 28.767,21.264L28.767,26.414C34.401,26.347 36.684,24.014 36.684,18.264L36.684,11.264C36.684,5.431 34.351,3.097 28.517,3.097Z" fill="#1F2020"/>
</g>
</svg>
