<svg width="40" height="42" viewBox="0 0 40 42" fill="none" xmlns="http://www.w3.org/2000/svg" xmlns:xlink="http://www.w3.org/1999/xlink">
<path d="M26.053,21.93L26.053,28.789C26.053,34.506 23.767,36.792 18.05,36.792L11.191,36.792C5.474,36.792 3.188,34.506 3.188,28.789L3.188,21.93C3.188,16.213 5.474,13.927 11.191,13.927L18.05,13.927C23.767,13.927 26.053,16.213 26.053,21.93Z" fill="#1F2020"/>
<g opacity="0.4">
<path d="M27.85,4.127L20.99,4.127C15.355,4.127 13.069,6.365 13.003,11.885L18.05,11.885C24.91,11.885 28.095,15.07 28.095,21.93L28.095,26.977C33.615,26.911 35.853,24.625 35.853,18.99L35.853,12.13C35.853,6.414 33.566,4.127 27.85,4.127Z" fill="#1F2020"/>
</g>
</svg>
