<svg width="42" height="42" viewBox="0 0 42 42" fill="none" xmlns="http://www.w3.org/2000/svg" xmlns:xlink="http://www.w3.org/1999/xlink">
<path d="M27.284,21.705L27.284,28.705C27.284,34.538 24.951,36.872 19.117,36.872L12.117,36.872C6.284,36.872 3.951,34.538 3.951,28.705L3.951,21.705C3.951,15.872 6.284,13.538 12.117,13.538L19.117,13.538C24.951,13.538 27.284,15.872 27.284,21.705Z" fill="#017EFA"/>
<g opacity="0.4">
<path d="M29.117,3.538L22.117,3.538C16.367,3.538 14.034,5.822 13.967,11.455L19.117,11.455C26.117,11.455 29.367,14.705 29.367,21.705L29.367,26.855C35.001,26.788 37.284,24.455 37.284,18.705L37.284,11.705C37.284,5.872 34.951,3.538 29.117,3.538Z" fill="#017EFA"/>
</g>
</svg>
