<svg width="530" height="1438" viewBox="0 0 530 1438" fill="none" xmlns="http://www.w3.org/2000/svg" xmlns:xlink="http://www.w3.org/1999/xlink">
<rect  x="0" y="0" width="500" height="1438" rx="32" fill="#27272F"/>
<circle cx="500" cy="70" r="30" fill="#27272F"/>
<circle cx="500" cy="69.231" r="19.231" fill="#737382"/>
<path d="M503.434,79.155C503.217,79.155 502.999,79.075 502.827,78.903L495.364,71.44C494.151,70.226 494.151,68.235 495.364,67.021L502.827,59.558C503.159,59.226 503.709,59.226 504.041,59.558C504.373,59.89 504.373,60.439 504.041,60.771L496.577,68.235C496.028,68.784 496.028,69.677 496.577,70.226L504.041,77.69C504.373,78.022 504.373,78.571 504.041,78.903C503.869,79.063 503.651,79.155 503.434,79.155Z" fill="#FFFFFF"/>
</svg>
