<svg width="126" height="854" viewBox="0 0 126 854" fill="none" xmlns="http://www.w3.org/2000/svg" xmlns:xlink="http://www.w3.org/1999/xlink">
<g filter="url(#filter33_3198)">
<rect  x="62.03" y="2.565" width="82.017" height="82.017" rx="29.398" transform="rotate(90 62.03 2.565)" fill="#FFFFFF" fill-opacity="0.5" stroke="#000000" stroke-opacity="0" stroke-width="2.45" stroke-miterlimit="3.999327"/>
</g>
<path d="M43.932,61.357C42.466,61.357 41.278,60.169 41.278,58.703L41.278,58.703C41.278,57.237 42.466,56.049 43.932,56.049L75.78,56.049C77.246,56.049 78.434,57.237 78.434,58.703L78.434,58.703C78.434,60.169 77.246,61.357 75.78,61.357L43.932,61.357Z" transform="rotate(90 59.856 58.703)" fill="#000000"/>
<path d="M43.932,61.355C42.467,61.355 41.278,60.167 41.278,58.701L41.278,58.701C41.278,57.236 42.467,56.047 43.932,56.047L75.78,56.047C77.246,56.047 78.434,57.236 78.434,58.701L78.434,58.701C78.434,60.167 77.246,61.355 75.78,61.355L43.932,61.355Z" transform="rotate(270 59.856 58.701)" fill="#000000"/>
<g filter="url(#filter33_3203)">
<rect  x="60.56" y="126.565" width="82.017" height="82.017" rx="29.398" transform="rotate(90 60.56 126.565)" fill="#FFFFFF" fill-opacity="0.5" stroke="#000000" stroke-opacity="0" stroke-width="2.45" stroke-miterlimit="3.999327"/>
</g>
<path d="M39.143,177.286L43.857,177.286L43.857,167.857L53.286,167.857L53.286,163.143L39.143,163.143L39.143,177.286Z" fill="#000000"/>
<path d="M62.714,163.143L62.714,167.857L72.143,167.857L72.143,177.286L76.857,177.286L76.857,163.143L62.714,163.143Z" fill="#000000"/>
<path d="M72.143,196.144L62.714,196.144L62.714,200.858L76.857,200.858L76.857,186.715L72.143,186.715L72.143,196.144Z" fill="#000000"/>
<path d="M43.857,186.715L39.143,186.715L39.143,200.858L53.286,200.858L53.286,196.144L43.857,196.144L43.857,186.715Z" fill="#000000"/>
<g filter="url(#filter33_3215)">
<rect  x="62.56" y="250.565" width="82.017" height="82.017" rx="29.398" transform="rotate(90 62.56 250.565)" fill="#FFFFFF" fill-opacity="0.5" stroke="#000000" stroke-opacity="0" stroke-width="2.45" stroke-miterlimit="3.999327"/>
</g>
<path d="M42.15,312.097L50.544,312.097L61.038,322.61L61.038,288.968L50.544,299.481L42.15,299.481L42.15,312.097ZM65.235,297.379L65.235,314.2C68.341,312.77 70.482,309.511 70.482,305.789C70.482,302.131 68.341,298.935 65.235,297.379ZM65.235,291.681C71.3,293.489 75.728,299.124 75.728,305.789C75.728,312.454 71.3,318.089 65.235,319.898L65.235,324.229C73.651,322.316 79.925,314.788 79.925,305.789C79.925,296.79 73.651,289.263 65.235,287.349L65.235,291.681Z" fill="#1C1C1E"/>
<g filter="url(#filter33_3220)">
<rect  x="62.56" y="370.565" width="82.017" height="82.017" rx="29.398" transform="rotate(90 62.56 370.565)" fill="#FFFFFF" fill-opacity="0.5" stroke="#000000" stroke-opacity="0" stroke-width="2.45" stroke-miterlimit="3.999327"/>
</g>
<g filter="url(#filterI33_3221;87_1266)">
<path d="M66.292,420.154C66.969,419.473 66.965,418.371 66.284,417.694C65.602,417.017 64.501,417.021 63.824,417.702L66.292,420.154ZM54.27,429.788L53.358,431.27C54.046,431.693 54.935,431.587 55.504,431.014L54.27,429.788ZM41.639,422.015L40.727,423.496L40.728,423.496L41.639,422.015ZM42.184,417.941L42.669,419.612L42.67,419.611L42.184,417.941ZM72.004,409.264L71.521,407.593L71.518,407.594L72.004,409.264ZM74.76,412.067L73.093,411.57L73.092,411.572L74.76,412.067ZM65.912,441.856L67.58,442.352L67.58,442.351L65.912,441.856ZM61.868,442.378L63.358,441.48L63.358,441.48L61.868,442.378ZM55.759,428.89C55.263,428.067 54.193,427.803 53.371,428.299C52.548,428.796 52.284,429.865 52.78,430.687L55.759,428.89ZM63.824,417.702L53.036,428.562L55.504,431.014L66.292,420.154L63.824,417.702ZM55.182,428.307L42.551,420.533L40.728,423.496L53.358,431.27L55.182,428.307ZM42.551,420.533C42.173,420.3 42.264,419.729 42.669,419.612L41.699,416.27C38.376,417.235 37.796,421.691 40.727,423.496L42.551,420.533ZM42.67,419.611L72.49,410.934L71.518,407.594L41.698,416.271L42.67,419.611ZM72.488,410.935C72.843,410.832 73.213,411.167 73.093,411.57L76.427,412.564C77.323,409.559 74.557,406.714 71.521,407.593L72.488,410.935ZM73.092,411.572L64.245,441.361L67.58,442.351L76.428,412.562L73.092,411.572ZM64.245,441.36C64.118,441.785 63.576,441.842 63.358,441.48L60.379,443.277C62.169,446.244 66.598,445.655 67.58,442.352L64.245,441.36ZM63.358,441.48L55.759,428.89L52.78,430.687L60.379,443.277L63.358,441.48Z" transform="rotate(90 57.714 426.317)" fill="#1C1C1E"/>
</g>
<g filter="url(#filter33_3223)">
<rect  x="62.56" y="490.565" width="82.017" height="82.017" rx="29.398" transform="rotate(90 62.56 490.565)" fill="#FFFFFF" fill-opacity="0.5" stroke="#000000" stroke-opacity="0" stroke-width="2.45" stroke-miterlimit="3.999327"/>
</g>
<defs>
<filter id="filter33_3198" x="-9.22924" y="-10.699084" width="83.928324" height="83.928324" filterUnits="userSpaceOnUse" color-interpolation-filters="sRGB">
<feFlood flood-opacity="0" result="BackgroundImageFix"/>
<feColorMatrix in="SourceAlpha" type="matrix" values="0 0 0 0 0 0 0 0 0 0 0 0 0 0 0 0 0 0 127 0" result="hardAlpha"/>
<feMorphology radius="0" operator="dilate" in="SourceAlpha" result="0dropshadow"/>
<feOffset dx="0" dy="4.899694"/>
<feGaussianBlur stdDeviation="7.349542"/>
<feComposite in2="hardAlpha" operator="out"/>
<feColorMatrix type="matrix" values="0 0 0 0 0 0 0 0 0 0 0 0 0 0 0 0 0 0 0.22 0"/>
<feBlend mode="normal" in2="BackgroundImageFix" result="0dropshadow"/>
<feBlend mode="normal" in="SourceGraphic" in2="0dropshadow" result="shape"/>
</filter>
<filter id="filter33_3203" x="-10.698966" y="113.300916" width="83.928324" height="83.928324" filterUnits="userSpaceOnUse" color-interpolation-filters="sRGB">
<feFlood flood-opacity="0" result="BackgroundImageFix"/>
<feColorMatrix in="SourceAlpha" type="matrix" values="0 0 0 0 0 0 0 0 0 0 0 0 0 0 0 0 0 0 127 0" result="hardAlpha"/>
<feMorphology radius="0" operator="dilate" in="SourceAlpha" result="0dropshadow"/>
<feOffset dx="0" dy="4.899694"/>
<feGaussianBlur stdDeviation="7.349542"/>
<feComposite in2="hardAlpha" operator="out"/>
<feColorMatrix type="matrix" values="0 0 0 0 0 0 0 0 0 0 0 0 0 0 0 0 0 0 0.22 0"/>
<feBlend mode="normal" in2="BackgroundImageFix" result="0dropshadow"/>
<feBlend mode="normal" in="SourceGraphic" in2="0dropshadow" result="shape"/>
</filter>
<filter id="filter33_3215" x="-8.698966" y="237.300916" width="83.928324" height="83.928324" filterUnits="userSpaceOnUse" color-interpolation-filters="sRGB">
<feFlood flood-opacity="0" result="BackgroundImageFix"/>
<feColorMatrix in="SourceAlpha" type="matrix" values="0 0 0 0 0 0 0 0 0 0 0 0 0 0 0 0 0 0 127 0" result="hardAlpha"/>
<feMorphology radius="0" operator="dilate" in="SourceAlpha" result="0dropshadow"/>
<feOffset dx="0" dy="4.899694"/>
<feGaussianBlur stdDeviation="7.349542"/>
<feComposite in2="hardAlpha" operator="out"/>
<feColorMatrix type="matrix" values="0 0 0 0 0 0 0 0 0 0 0 0 0 0 0 0 0 0 0.22 0"/>
<feBlend mode="normal" in2="BackgroundImageFix" result="0dropshadow"/>
<feBlend mode="normal" in="SourceGraphic" in2="0dropshadow" result="shape"/>
</filter>
<filter id="filter33_3220" x="-8.698966" y="357.300916" width="83.928324" height="83.928324" filterUnits="userSpaceOnUse" color-interpolation-filters="sRGB">
<feFlood flood-opacity="0" result="BackgroundImageFix"/>
<feColorMatrix in="SourceAlpha" type="matrix" values="0 0 0 0 0 0 0 0 0 0 0 0 0 0 0 0 0 0 127 0" result="hardAlpha"/>
<feMorphology radius="0" operator="dilate" in="SourceAlpha" result="0dropshadow"/>
<feOffset dx="0" dy="4.899694"/>
<feGaussianBlur stdDeviation="7.349542"/>
<feComposite in2="hardAlpha" operator="out"/>
<feColorMatrix type="matrix" values="0 0 0 0 0 0 0 0 0 0 0 0 0 0 0 0 0 0 0.22 0"/>
<feBlend mode="normal" in2="BackgroundImageFix" result="0dropshadow"/>
<feBlend mode="normal" in="SourceGraphic" in2="0dropshadow" result="shape"/>
</filter>
<filter id="filterI33_3221;87_1266" x="35.754569" y="398.698356" width="32.490583" height="32.490583" filterUnits="userSpaceOnUse" color-interpolation-filters="sRGB">
<feFlood flood-opacity="0" result="BackgroundImageFix"/>
<feColorMatrix in="SourceAlpha" type="matrix" values="0 0 0 0 0 0 0 0 0 0 0 0 0 0 0 0 0 0 127 0" result="hardAlpha"/>
<feMorphology radius="0" operator="dilate" in="SourceAlpha" result="0dropshadow"/>
<feOffset dx="0" dy="4.81672"/>
<feGaussianBlur stdDeviation="2.40836"/>
<feComposite in2="hardAlpha" operator="out"/>
<feColorMatrix type="matrix" values="0 0 0 0 0 0 0 0 0 0 0 0 0 0 0 0 0 0 0.25 0"/>
<feBlend mode="normal" in2="BackgroundImageFix" result="0dropshadow"/>
<feBlend mode="normal" in="SourceGraphic" in2="0dropshadow" result="shape"/>
</filter>
<filter id="filter33_3223" x="-8.698966" y="477.300916" width="83.928324" height="83.928324" filterUnits="userSpaceOnUse" color-interpolation-filters="sRGB">
<feFlood flood-opacity="0" result="BackgroundImageFix"/>
<feColorMatrix in="SourceAlpha" type="matrix" values="0 0 0 0 0 0 0 0 0 0 0 0 0 0 0 0 0 0 127 0" result="hardAlpha"/>
<feMorphology radius="0" operator="dilate" in="SourceAlpha" result="0dropshadow"/>
<feOffset dx="0" dy="4.899694"/>
<feGaussianBlur stdDeviation="7.349542"/>
<feComposite in2="hardAlpha" operator="out"/>
<feColorMatrix type="matrix" values="0 0 0 0 0 0 0 0 0 0 0 0 0 0 0 0 0 0 0.22 0"/>
<feBlend mode="normal" in2="BackgroundImageFix" result="0dropshadow"/>
<feBlend mode="normal" in="SourceGraphic" in2="0dropshadow" result="shape"/>
</filter>
</defs>
</svg>
