<svg width="42" height="42" viewBox="0 0 42 42" fill="none" xmlns="http://www.w3.org/2000/svg" xmlns:xlink="http://www.w3.org/1999/xlink">
<path d="M41.833,26.63L41.833,29.512C41.833,29.991 41.812,30.473 41.771,30.952C41.186,37.533 36.614,41.833 30.018,41.833L11.982,41.833C8.642,41.833 5.824,40.749 3.799,38.784C3.005,38.055 2.337,37.199 1.816,36.217C2.504,35.379 3.277,34.463 4.028,33.544C5.302,32.019 6.533,30.513 7.306,29.533C8.454,28.113 11.481,24.374 15.677,26.129C16.533,26.484 17.284,26.985 17.973,27.424C19.664,28.552 20.374,28.886 21.563,28.238C22.879,27.528 23.734,26.129 24.632,24.667C25.112,23.892 25.592,23.142 26.114,22.453C28.39,19.487 31.897,18.693 34.819,20.448C36.28,21.325 37.533,22.432 38.702,23.558C38.952,23.808 39.203,24.04 39.432,24.27C39.746,24.583 40.789,25.627 41.833,26.63Z" fill="#FFFFFF"/>
<g opacity="0.4" style="isolation:isolate">
<path d="M30.039,0.167L11.982,0.167C4.905,0.167 0.167,5.117 0.167,12.488L0.167,29.513C0.167,32.08 0.751,34.358 1.816,36.217C2.505,35.38 3.277,34.463 4.029,33.542C5.302,32.019 6.534,30.513 7.306,29.533C8.454,28.113 11.481,24.374 15.677,26.129C16.533,26.484 17.284,26.985 17.973,27.424C19.664,28.552 20.374,28.886 21.564,28.236C22.879,27.528 23.735,26.129 24.632,24.665C25.112,23.892 25.592,23.142 26.114,22.453C28.39,19.487 31.897,18.693 34.819,20.448C36.28,21.325 37.533,22.432 38.702,23.558C38.953,23.808 39.203,24.04 39.433,24.27C39.746,24.581 40.79,25.626 41.833,26.63L41.833,12.488C41.833,5.117 37.095,0.167 30.039,0.167Z" fill="#FFFFFF"/>
</g>
<path d="M19.863,14.327C19.863,17.261 17.419,19.705 14.486,19.705C11.555,19.705 9.111,17.261 9.111,14.327C9.111,11.394 11.555,8.948 14.486,8.948C17.419,8.948 19.863,11.394 19.863,14.327Z" fill="#FFFFFF"/>
</svg>
