<svg width="42" height="42" viewBox="0 0 42 42" fill="none" xmlns="http://www.w3.org/2000/svg" xmlns:xlink="http://www.w3.org/1999/xlink">
<path d="M20.534,1.023C18.261,1.382 16.278,4.222 14.959,9.006C14.593,10.334 14.183,12.366 14.002,13.746C13.964,14.042 13.944,14.104 13.884,14.128C13.844,14.144 13.619,14.183 13.383,14.215C10.548,14.596 7.58,15.371 5.491,16.275C2.928,17.383 1.355,18.732 0.887,20.224C0.492,21.485 0.874,22.728 2.008,23.873C3.965,25.848 8.102,27.394 13.471,28.158C13.754,28.198 13.989,28.235 13.993,28.239C13.997,28.243 14.043,28.528 14.096,28.872C14.729,33.003 15.943,36.608 17.388,38.647C17.849,39.299 18.435,39.925 18.875,40.239C19.694,40.824 20.549,41.08 21.342,40.978C22.21,40.867 22.974,40.45 23.755,39.662L24.127,39.287L24.107,39.552C24.077,39.947 24.182,40.182 24.452,40.323C24.597,40.398 24.893,40.369 25.039,40.265C25.275,40.097 25.283,40.054 25.33,38.647C25.361,37.707 25.362,37.342 25.333,37.253C25.276,37.083 25.09,36.917 24.898,36.866C24.741,36.824 24.708,36.831 24.148,37.01C22.081,37.672 22.234,37.616 22.101,37.764C21.874,38.015 21.884,38.326 22.128,38.57C22.324,38.766 22.501,38.797 22.828,38.695C22.955,38.655 23.064,38.627 23.07,38.634C23.098,38.661 22.434,39.253 22.223,39.389C21.156,40.075 20.157,39.9 19.104,38.843C17.473,37.203 16.122,33.696 15.347,29.09C15.283,28.705 15.234,28.385 15.24,28.379C15.245,28.374 15.497,28.393 15.799,28.422C21.242,28.95 27.374,28.554 32.09,27.37C33.976,26.897 35.383,26.398 36.776,25.711C37.988,25.112 38.747,24.597 39.456,23.891C40.073,23.277 40.43,22.716 40.637,22.032C40.723,21.75 40.734,21.653 40.736,21.195C40.737,20.806 40.722,20.62 40.674,20.445C40.463,19.674 40.066,19.036 39.389,18.383L39.046,18.052L39.362,18.056C39.832,18.063 40.034,17.94 40.107,17.603C40.162,17.354 40.073,17.132 39.854,16.969C39.736,16.88 39.27,16.848 37.91,16.832L36.986,16.821L36.854,16.921C36.531,17.167 36.537,17.303 36.922,18.506C37.09,19.032 37.261,19.568 37.301,19.696C37.437,20.13 37.765,20.32 38.137,20.178C38.453,20.057 38.572,19.721 38.443,19.311L38.372,19.087L38.507,19.208C38.98,19.636 39.342,20.171 39.486,20.657C39.558,20.897 39.561,21.396 39.493,21.651C39.305,22.356 38.742,23.056 37.83,23.716C36.349,24.788 33.823,25.772 30.883,26.422C30.197,26.574 29.087,26.782 28.425,26.884L28.109,26.932L28.129,26.84C28.234,26.356 28.26,26.117 28.221,25.973C28.117,25.588 27.617,25.412 27.299,25.649C27.094,25.803 27.051,25.933 26.929,26.792C26.88,27.135 26.968,27.092 26.151,27.175C24.203,27.373 23.104,27.424 20.758,27.424C18.444,27.425 17.21,27.37 15.481,27.189C15.119,27.151 15.077,27.139 15.062,27.072C14.984,26.723 14.814,24.481 14.755,23.03C14.709,21.897 14.731,19.01 14.793,18.018C15.039,14.07 15.59,10.855 16.494,8.083C17.848,3.932 19.708,1.775 21.503,2.273C21.841,2.366 22.036,2.467 22.385,2.728C24.377,4.216 26.046,8.524 26.814,14.161C26.867,14.544 26.93,14.908 26.955,14.969C26.98,15.03 27.061,15.127 27.136,15.183C27.251,15.271 27.303,15.286 27.494,15.286C27.744,15.286 27.859,15.225 27.999,15.019C28.11,14.857 28.104,14.69 27.956,13.652C27.35,9.408 26.252,5.932 24.8,3.664C24.301,2.884 23.656,2.16 23.08,1.735C22.708,1.46 22.162,1.195 21.761,1.093C21.419,1.007 20.844,0.974 20.534,1.023ZM19.787,13.729C19.445,13.755 19.34,13.806 19.196,14.018C19.02,14.276 19.133,14.706 19.414,14.851C19.538,14.915 19.613,14.922 20.11,14.915C20.559,14.909 20.697,14.894 20.815,14.842C21.012,14.755 21.125,14.589 21.144,14.357C21.164,14.117 21.08,13.936 20.892,13.812C20.768,13.73 20.71,13.717 20.424,13.711C20.244,13.708 19.958,13.715 19.787,13.729ZM22.588,13.809C22.294,13.954 22.181,14.302 22.329,14.605C22.444,14.84 22.586,14.912 23.015,14.95C23.693,15.009 23.836,15.004 23.997,14.913C24.377,14.7 24.399,14.168 24.038,13.901C23.969,13.85 23.831,13.818 23.521,13.784C22.92,13.716 22.766,13.72 22.588,13.809ZM16.848,13.843C16.671,13.858 16.458,13.881 16.375,13.893C15.968,13.954 15.754,14.453 15.984,14.801C16.169,15.08 16.268,15.098 17.245,15.024C17.745,14.986 17.878,14.944 18.005,14.782C18.242,14.481 18.159,14.044 17.833,13.877C17.677,13.798 17.45,13.79 16.848,13.843ZM13.794,15.42C13.794,15.445 13.77,15.706 13.741,16C13.43,19.177 13.444,23.098 13.78,26.402C13.811,26.703 13.826,26.96 13.813,26.972C13.779,27.006 12.384,26.783 11.383,26.583C8.027,25.913 5.32,24.907 3.65,23.71C3.036,23.271 2.404,22.587 2.154,22.094C2.041,21.871 1.937,21.432 1.938,21.181C1.941,19.794 3.557,18.346 6.361,17.216C8.286,16.441 10.499,15.878 13.437,15.415C13.725,15.369 13.794,15.37 13.794,15.42ZM27.497,16.175C27.316,16.242 27.226,16.327 27.145,16.507C27.084,16.643 27.081,16.694 27.114,17.043C27.135,17.255 27.151,17.517 27.151,17.625C27.152,18.03 27.307,18.287 27.607,18.376C27.902,18.465 28.246,18.276 28.336,17.976C28.393,17.785 28.312,16.654 28.229,16.485C28.095,16.211 27.772,16.074 27.497,16.175ZM27.679,19.373C27.53,19.42 27.37,19.547 27.304,19.672C27.217,19.838 27.233,20.86 27.328,21.074C27.438,21.324 27.697,21.449 27.991,21.394C28.161,21.362 28.39,21.153 28.436,20.986C28.477,20.84 28.449,19.971 28.397,19.762C28.364,19.628 28.124,19.374 28.03,19.374C28.004,19.374 27.935,19.367 27.879,19.358C27.822,19.349 27.733,19.356 27.679,19.373ZM27.615,22.54C27.495,22.59 27.361,22.707 27.308,22.81C27.233,22.955 27.146,23.939 27.193,24.11C27.239,24.277 27.414,24.467 27.568,24.518C27.739,24.574 27.977,24.543 28.113,24.446C28.3,24.313 28.351,24.159 28.402,23.581C28.444,23.1 28.443,23.043 28.386,22.893C28.297,22.66 28.128,22.541 27.871,22.528C27.76,22.523 27.645,22.528 27.615,22.54Z" clip-rule="evenodd" fill-rule="evenodd" fill="#017EFA" stroke="#017EFA" stroke-width="0.5" stroke-miterlimit="3.999327"/>
</svg>
