<svg width="48" height="48" viewBox="0 0 48 48" fill="none" xmlns="http://www.w3.org/2000/svg" xmlns:xlink="http://www.w3.org/1999/xlink">
<path d="M38.14,39.64C37.76,39.64 37.38,39.5 37.08,39.2C36.5,38.62 36.5,37.66 37.08,37.08C44.3,29.86 44.3,18.12 37.08,10.92C36.5,10.34 36.5,9.38 37.08,8.8C37.66,8.22 38.62,8.22 39.2,8.8C47.58,17.18 47.58,30.82 39.2,39.2C38.9,39.5 38.52,39.64 38.14,39.64Z" fill="#C0C0D6"/>
<path d="M9.86,39.64C9.48,39.64 9.1,39.5 8.8,39.2C0.42,30.82 0.42,17.18 8.8,8.8C9.38,8.22 10.34,8.22 10.92,8.8C11.5,9.38 11.5,10.34 10.92,10.92C3.7,18.14 3.7,29.88 10.92,37.08C11.5,37.66 11.5,38.62 10.92,39.2C10.62,39.5 10.24,39.64 9.86,39.64Z" fill="#C0C0D6"/>
<path d="M24,45.42C21.5,45.4 19.12,45 16.9,44.22C16.12,43.94 15.7,43.08 15.98,42.3C16.26,41.52 17.1,41.1 17.9,41.38C19.82,42.04 21.86,42.4 24.02,42.4C26.16,42.4 28.22,42.04 30.12,41.38C30.9,41.12 31.76,41.52 32.04,42.3C32.32,43.08 31.9,43.94 31.12,44.22C28.88,45 26.5,45.42 24,45.42Z" fill="#C0C0D6"/>
<path d="M30.6,6.68C30.44,6.68 30.26,6.66 30.1,6.6C28.2,5.92 26.14,5.58 24,5.58C21.86,5.58 19.82,5.94 17.9,6.6C17.1,6.86 16.26,6.46 15.98,5.68C15.7,4.9 16.12,4.04 16.9,3.76C19.14,2.98 21.52,2.58 24,2.58C26.48,2.58 28.88,2.98 31.1,3.76C31.88,4.04 32.3,4.9 32.02,5.68C31.8,6.3 31.22,6.68 30.6,6.68Z" fill="#C0C0D6"/>
<path d="M17.48,24L17.48,20.66C17.48,16.5 20.42,14.8 24.02,16.88L26.92,18.56L29.82,20.24C33.42,22.32 33.42,25.72 29.82,27.8L26.92,29.48L24.02,31.16C20.42,33.24 17.48,31.54 17.48,27.38L17.48,24Z" fill="#C0C0D6"/>
</svg>
