<svg width="34" height="34" viewBox="0 0 34 34" fill="none" xmlns="http://www.w3.org/2000/svg" xmlns:xlink="http://www.w3.org/1999/xlink">
<path d="M24.506,10.559C25.098,9.963 25.095,8.999 24.498,8.407C23.902,7.814 22.938,7.817 22.346,8.414L24.506,10.559ZM13.986,18.989L13.188,20.286C13.79,20.656 14.568,20.563 15.066,20.062L13.986,18.989ZM2.934,12.187L2.136,13.483L2.137,13.483L2.934,12.187ZM3.411,8.623L3.835,10.085L3.836,10.084L3.411,8.623ZM29.504,1.03L29.08,-0.432L29.078,-0.431L29.504,1.03ZM31.915,3.483L30.456,3.048L30.456,3.049L31.915,3.483ZM24.173,29.548L25.632,29.982L25.632,29.982L24.173,29.548ZM20.635,30.006L21.938,29.219L21.938,29.219L20.635,30.006ZM15.289,18.203C14.855,17.483 13.919,17.252 13.199,17.686C12.48,18.12 12.248,19.056 12.683,19.776L15.289,18.203ZM22.346,8.414L12.906,17.917L15.066,20.062L24.506,10.559L22.346,8.414ZM14.784,17.693L3.732,10.891L2.137,13.483L13.188,20.286L14.784,17.693ZM3.732,10.891C3.401,10.687 3.481,10.188 3.835,10.085L2.987,7.161C0.079,8.005 -0.428,11.904 2.136,13.483L3.732,10.891ZM3.836,10.084L29.929,2.492L29.078,-0.431L2.986,7.161L3.836,10.084ZM29.927,2.493C30.238,2.403 30.561,2.696 30.456,3.048L33.374,3.918C34.157,1.289 31.737,-1.201 29.08,-0.432L29.927,2.493ZM30.456,3.049L22.714,29.115L25.632,29.982L33.374,3.916L30.456,3.049ZM22.714,29.115C22.604,29.487 22.129,29.536 21.938,29.219L19.332,30.792C20.898,33.388 24.773,32.872 25.632,29.982L22.714,29.115ZM21.938,29.219L15.289,18.203L12.683,19.776L19.332,30.792L21.938,29.219Z" transform="rotate(90 17 15.951)" fill="#FFFFFF"/>
</svg>
