<svg width="22" height="16" viewBox="0 0 22 16" fill="none" xmlns="http://www.w3.org/2000/svg" xmlns:xlink="http://www.w3.org/1999/xlink">
<path d="M21.509,3.188C22.234,2.354 22.146,1.091 21.313,0.366C20.479,-0.359 19.216,-0.271 18.491,0.562L21.509,3.188ZM11.083,12.125L9.574,13.438C9.954,13.874 10.504,14.125 11.083,14.125C11.662,14.125 12.212,13.874 12.592,13.438L11.083,12.125ZM3.675,0.562C2.95,-0.271 1.687,-0.359 0.854,0.366C0.02,1.091 -0.067,2.354 0.658,3.188L3.675,0.562ZM18.491,0.562L9.574,10.812L12.592,13.438L21.509,3.188L18.491,0.562ZM12.592,10.812L3.675,0.562L0.658,3.188L9.574,13.438L12.592,10.812Z" transform="rotate(0 11.083 7)" fill="#828293"/>
</svg>
