<svg width="798" height="206" viewBox="0 0 798 206" fill="none" xmlns="http://www.w3.org/2000/svg" xmlns:xlink="http://www.w3.org/1999/xlink">
<g filter="url(#filter33_3282)">
<path d="M32.848,-0.515C14.706,-0.515 0,14.192 0,32.333L0,65.243C0.363,65.232 0.728,65.226 1.094,65.226C19.84,65.226 35.037,80.423 35.037,99.169C35.037,117.915 19.84,133.112 1.094,133.112C0.728,133.112 0.363,133.106 0,133.094L0,172.077C0,190.219 14.706,204.925 32.848,204.925L764.26,204.925C782.4,204.925 797.108,190.219 797.108,172.077L797.108,32.333C797.108,14.192 782.4,-0.515 764.26,-0.515L32.848,-0.515Z" clip-rule="evenodd" fill-rule="evenodd" fill="#FFFFFF" fill-opacity="0.6"/>
</g>
<defs>
<filter id="filter33_3282" x="-7.122186" y="-7.636895" width="412.798082" height="116.964403" filterUnits="userSpaceOnUse" color-interpolation-filters="sRGB">
<feFlood flood-opacity="0" result="BackgroundImageFix"/>
<feColorMatrix in="SourceAlpha" type="matrix" values="0 0 0 0 0 0 0 0 0 0 0 0 0 0 0 0 0 0 127 0" result="hardAlpha"/>
<feMorphology radius="0" operator="dilate" in="SourceAlpha" result="0dropshadow"/>
<feOffset dx="0" dy="5.697749"/>
<feGaussianBlur stdDeviation="3.561093"/>
<feComposite in2="hardAlpha" operator="out"/>
<feColorMatrix type="matrix" values="0 0 0 0 0 0 0 0 0 0 0 0 0 0 0 0 0 0 0.15 0"/>
<feBlend mode="normal" in2="BackgroundImageFix" result="0dropshadow"/>
<feBlend mode="normal" in="SourceGraphic" in2="0dropshadow" result="shape"/>
</filter>
</defs>
</svg>
