<svg width="12" height="10" viewBox="0 0 12 10" fill="none" xmlns="http://www.w3.org/2000/svg" xmlns:xlink="http://www.w3.org/1999/xlink">
<path d="M5.232,0.167C2.57,0.167 0.399,2.338 0.399,5L3.399,5C3.399,3.995 4.227,3.167 5.232,3.167L5.232,0.167ZM0.399,5C0.399,7.662 2.57,9.833 5.232,9.833L5.232,6.833C4.227,6.833 3.399,6.005 3.399,5L0.399,5ZM5.232,9.833C7.894,9.833 10.066,7.662 10.066,5L7.066,5C7.066,6.005 6.237,6.833 5.232,6.833L5.232,9.833ZM10.066,5C10.066,2.338 7.894,0.167 5.232,0.167L5.232,3.167C6.237,3.167 7.066,3.995 7.066,5L10.066,5Z" transform="rotate(0 5.232 5)" fill="#C0C0D6"/>
</svg>
