<svg width="38" height="40" viewBox="0 0 38 40" fill="none" xmlns="http://www.w3.org/2000/svg" xmlns:xlink="http://www.w3.org/1999/xlink">
<path d="M33.02,7.7L21.14,0.84C19.2,-0.28 16.8,-0.28 14.84,0.84L2.98,7.7C1.04,8.82 -0.16,10.9 -0.16,13.16L-0.16,26.84C-0.16,29.08 1.04,31.16 2.98,32.3L14.86,39.16C16.8,40.28 19.2,40.28 21.16,39.16L33.04,32.3C34.98,31.18 36.18,29.1 36.18,26.84L36.18,13.16C36.16,10.9 34.96,8.84 33.02,7.7ZM22.5,22.8L20.42,24L18.34,25.2C15.68,26.74 13.5,25.48 13.5,22.4L13.5,20L13.5,17.6C13.5,14.52 15.68,13.26 18.34,14.8L20.42,16L22.5,17.2C25.16,18.74 25.16,21.26 22.5,22.8Z" fill="#C0C0D6"/>
</svg>
