<svg width="38" height="38" viewBox="0 0 38 38" fill="none" xmlns="http://www.w3.org/2000/svg" xmlns:xlink="http://www.w3.org/1999/xlink">
<path d="M36.167,18C36.167,17.172 35.495,16.5 34.667,16.5C33.838,16.5 33.167,17.172 33.167,18L36.167,18ZM3.183,25.4L3.183,23.9C2.355,23.9 1.683,24.572 1.683,25.4L3.183,25.4ZM-0.167,18C-0.167,18.828 0.505,19.5 1.333,19.5C2.162,19.5 2.833,18.828 2.833,18L-0.167,18ZM34.667,10.6L34.667,12.1C35.495,12.1 36.167,11.428 36.167,10.6L34.667,10.6ZM36.167,2.267C36.167,1.438 35.495,0.767 34.667,0.767C33.838,0.767 33.167,1.438 33.167,2.267L36.167,2.267ZM27.267,9.1C26.438,9.1 25.767,9.772 25.767,10.6C25.767,11.428 26.438,12.1 27.267,12.1L27.267,9.1ZM10.717,26.9C11.545,26.9 12.217,26.228 12.217,25.4C12.217,24.572 11.545,23.9 10.717,23.9L10.717,26.9ZM1.683,33.733C1.683,34.562 2.355,35.233 3.183,35.233C4.012,35.233 4.683,34.562 4.683,33.733L1.683,33.733ZM33.167,18C33.167,26.372 26.372,33.167 18,33.167L18,36.167C28.028,36.167 36.167,28.028 36.167,18L33.167,18ZM18,33.167C13.921,33.167 10.562,31.11 8.15,28.922C6.953,27.837 6.023,26.748 5.392,25.932C5.078,25.524 4.841,25.188 4.685,24.957C4.607,24.842 4.549,24.754 4.513,24.696C4.494,24.668 4.481,24.647 4.474,24.634C4.47,24.628 4.467,24.624 4.466,24.622C4.465,24.621 4.465,24.62 4.465,24.621C4.465,24.621 4.465,24.621 4.465,24.621C4.466,24.621 4.466,24.622 4.466,24.622C4.466,24.622 4.466,24.623 3.183,25.4C1.901,26.178 1.901,26.178 1.901,26.179C1.901,26.179 1.902,26.179 1.902,26.18C1.903,26.181 1.903,26.182 1.904,26.183C1.905,26.185 1.907,26.188 1.909,26.192C1.914,26.199 1.919,26.208 1.926,26.219C1.94,26.242 1.96,26.273 1.985,26.312C2.035,26.39 2.107,26.501 2.201,26.639C2.388,26.915 2.661,27.303 3.017,27.764C3.728,28.685 4.777,29.913 6.134,31.144C8.83,33.59 12.879,36.167 18,36.167L18,33.167ZM2.833,18C2.833,9.625 9.566,2.833 18,2.833L18,-0.167C7.901,-0.167 -0.167,7.976 -0.167,18L2.833,18ZM18,2.833C23.113,2.833 26.951,4.958 29.541,7.119C30.837,8.2 31.809,9.281 32.454,10.088C32.776,10.491 33.014,10.823 33.169,11.049C33.246,11.162 33.302,11.248 33.338,11.304C33.355,11.331 33.368,11.351 33.375,11.362C33.378,11.368 33.38,11.372 33.381,11.373C33.382,11.374 33.382,11.374 33.382,11.374C33.381,11.373 33.381,11.373 33.381,11.373C33.381,11.372 33.381,11.372 33.38,11.372C33.38,11.371 33.38,11.371 34.667,10.6C35.954,9.829 35.953,9.829 35.953,9.828C35.953,9.828 35.952,9.827 35.952,9.827C35.951,9.826 35.951,9.824 35.95,9.823C35.948,9.821 35.946,9.817 35.944,9.814C35.94,9.806 35.934,9.796 35.926,9.785C35.912,9.761 35.891,9.729 35.866,9.688C35.814,9.608 35.74,9.495 35.644,9.354C35.452,9.074 35.17,8.682 34.798,8.216C34.055,7.286 32.944,6.051 31.463,4.815C28.499,2.342 24.004,-0.167 18,-0.167L18,2.833ZM36.167,10.6L36.167,2.267L33.167,2.267L33.167,10.6L36.167,10.6ZM34.667,9.1L27.267,9.1L27.267,12.1L34.667,12.1L34.667,9.1ZM3.183,26.9L10.717,26.9L10.717,23.9L3.183,23.9L3.183,26.9ZM1.683,25.4L1.683,33.733L4.683,33.733L4.683,25.4L1.683,25.4Z" fill="#FFFFFF"/>
</svg>
