<svg width="12" height="10" viewBox="0 0 12 10" fill="none" xmlns="http://www.w3.org/2000/svg" xmlns:xlink="http://www.w3.org/1999/xlink">
<path d="M5.23,0.167C2.569,0.167 0.397,2.338 0.397,5L3.397,5C3.397,3.995 4.225,3.167 5.23,3.167L5.23,0.167ZM0.397,5C0.397,7.662 2.569,9.833 5.23,9.833L5.23,6.833C4.225,6.833 3.397,6.005 3.397,5L0.397,5ZM5.23,9.833C7.892,9.833 10.064,7.662 10.064,5L7.064,5C7.064,6.005 6.235,6.833 5.23,6.833L5.23,9.833ZM10.064,5C10.064,2.338 7.892,0.167 5.23,0.167L5.23,3.167C6.235,3.167 7.064,3.995 7.064,5L10.064,5Z" transform="rotate(0 5.23 5)" fill="#C0C0D6"/>
</svg>
