<svg width="30" height="30" viewBox="0 0 30 30" fill="none" xmlns="http://www.w3.org/2000/svg" xmlns:xlink="http://www.w3.org/1999/xlink">
<path d="M24.674,9.333L4.84,9.333C4.061,9.333 3.424,8.696 3.424,7.917C3.424,7.137 4.061,6.5 4.84,6.5L24.674,6.5C25.453,6.5 26.09,7.137 26.09,7.917C26.09,8.696 25.453,9.333 24.674,9.333ZM21.84,0.833L7.674,0.833C6.894,0.833 6.257,1.471 6.257,2.25C6.257,3.029 6.894,3.667 7.674,3.667L21.84,3.667C22.62,3.667 23.257,3.029 23.257,2.25C23.257,1.471 22.62,0.833 21.84,0.833ZM28.924,15L28.924,26.333C28.924,27.892 27.649,29.167 26.09,29.167L3.424,29.167C1.865,29.167 0.59,27.892 0.59,26.333L0.59,15C0.59,13.442 1.865,12.167 3.424,12.167L26.09,12.167C27.649,12.167 28.924,13.442 28.924,15ZM19.276,20.043L11.924,16.034L11.924,25.285L19.276,21.29C19.772,21.021 19.772,20.312 19.276,20.043Z" fill="#FFFFFF" fill-opacity="0.8"/>
</svg>
