<svg width="40" height="40" viewBox="0 0 40 40" fill="none" xmlns="http://www.w3.org/2000/svg" xmlns:xlink="http://www.w3.org/1999/xlink">
<path d="M28.38,0L11.62,0C4.34,0 0,4.34 0,11.62L0,28.36C0,35.66 4.34,40 11.62,40L28.36,40C35.64,40 39.98,35.66 39.98,28.38L39.98,11.62C40,4.34 35.66,0 28.38,0ZM33.06,21.06L24.48,29.64C24.18,29.94 23.8,30.08 23.42,30.08C23.04,30.08 22.66,29.94 22.36,29.64C21.78,29.06 21.78,28.1 22.36,27.52L28.38,21.5L8,21.5C7.18,21.5 6.5,20.82 6.5,20C6.5,19.18 7.18,18.5 8,18.5L28.38,18.5L22.36,12.48C21.78,11.9 21.78,10.94 22.36,10.36C22.94,9.78 23.9,9.78 24.48,10.36L33.06,18.94C33.34,19.22 33.5,19.6 33.5,20C33.5,20.4 33.34,20.78 33.06,21.06Z" fill="#FFFFFF"/>
</svg>
