<svg width="28" height="30" viewBox="0 0 28 30" fill="none" xmlns="http://www.w3.org/2000/svg" xmlns:xlink="http://www.w3.org/1999/xlink">
<path d="M23.334,9.333L3.5,9.333C2.721,9.333 2.084,8.696 2.084,7.917C2.084,7.137 2.721,6.5 3.5,6.5L23.334,6.5C24.113,6.5 24.75,7.137 24.75,7.917C24.75,8.696 24.113,9.333 23.334,9.333ZM20.5,0.833L6.334,0.833C5.555,0.833 4.917,1.471 4.917,2.25C4.917,3.029 5.555,3.667 6.334,3.667L20.5,3.667C21.28,3.667 21.917,3.029 21.917,2.25C21.917,1.471 21.28,0.833 20.5,0.833ZM27.584,15L27.584,26.333C27.584,27.892 26.309,29.167 24.75,29.167L2.084,29.167C0.525,29.167 -0.75,27.892 -0.75,26.333L-0.75,15C-0.75,13.442 0.525,12.167 2.084,12.167L24.75,12.167C26.309,12.167 27.584,13.442 27.584,15ZM17.936,20.043L10.584,16.034L10.584,25.285L17.936,21.29C18.432,21.021 18.432,20.312 17.936,20.043Z" fill="#FFFFFF" fill-opacity="0.8"/>
</svg>
