<svg width="10" height="10" viewBox="0 0 10 10" fill="none" xmlns="http://www.w3.org/2000/svg" xmlns:xlink="http://www.w3.org/1999/xlink">
<path d="M5.102,0.167C2.44,0.167 0.269,2.338 0.269,5L3.269,5C3.269,3.995 4.097,3.167 5.102,3.167L5.102,0.167ZM0.269,5C0.269,7.662 2.44,9.833 5.102,9.833L5.102,6.833C4.097,6.833 3.269,6.005 3.269,5L0.269,5ZM5.102,9.833C7.764,9.833 9.935,7.662 9.935,5L6.935,5C6.935,6.005 6.107,6.833 5.102,6.833L5.102,9.833ZM9.935,5C9.935,2.338 7.764,0.167 5.102,0.167L5.102,3.167C6.107,3.167 6.935,3.995 6.935,5L9.935,5Z" transform="rotate(0 5.102 5)" fill="#C0C0D6"/>
</svg>
