<svg width="10" height="10" viewBox="0 0 10 10" fill="none" xmlns="http://www.w3.org/2000/svg" xmlns:xlink="http://www.w3.org/1999/xlink">
<path d="M4.047,0.167C1.385,0.167 -0.787,2.338 -0.787,5L2.213,5C2.213,3.995 3.042,3.167 4.047,3.167L4.047,0.167ZM-0.787,5C-0.787,7.662 1.385,9.833 4.047,9.833L4.047,6.833C3.042,6.833 2.213,6.005 2.213,5L-0.787,5ZM4.047,9.833C6.708,9.833 8.88,7.662 8.88,5L5.88,5C5.88,6.005 5.052,6.833 4.047,6.833L4.047,9.833ZM8.88,5C8.88,2.338 6.708,0.167 4.047,0.167L4.047,3.167C5.052,3.167 5.88,3.995 5.88,5L8.88,5Z" transform="rotate(0 4.047 5)" fill="#C0C0D6"/>
</svg>
