<svg width="30" height="30" viewBox="0 0 30 30" fill="none" xmlns="http://www.w3.org/2000/svg" xmlns:xlink="http://www.w3.org/1999/xlink">
<path d="M24.933,9.333L5.1,9.333C4.32,9.333 3.683,8.696 3.683,7.917C3.683,7.137 4.32,6.5 5.1,6.5L24.933,6.5C25.712,6.5 26.35,7.137 26.35,7.917C26.35,8.696 25.712,9.333 24.933,9.333ZM22.1,0.833L7.933,0.833C7.154,0.833 6.516,1.471 6.516,2.25C6.516,3.029 7.154,3.667 7.933,3.667L22.1,3.667C22.879,3.667 23.516,3.029 23.516,2.25C23.516,1.471 22.879,0.833 22.1,0.833ZM29.183,15L29.183,26.333C29.183,27.892 27.908,29.167 26.35,29.167L3.683,29.167C2.125,29.167 0.85,27.892 0.85,26.333L0.85,15C0.85,13.442 2.125,12.167 3.683,12.167L26.35,12.167C27.908,12.167 29.183,13.442 29.183,15ZM19.535,20.043L12.183,16.034L12.183,25.285L19.535,21.29C20.031,21.021 20.031,20.312 19.535,20.043Z" fill="#FFFFFF" fill-opacity="0.8"/>
</svg>
