<svg width="40" height="40" viewBox="0 0 40 40" fill="none" xmlns="http://www.w3.org/2000/svg" xmlns:xlink="http://www.w3.org/1999/xlink">
<path d="M19.94,0C8.9,0 -0.06,8.96 -0.06,20C-0.06,31.04 8.9,40 19.94,40C30.98,40 39.94,31.04 39.94,20C39.94,8.96 31,0 19.94,0ZM25.94,24.46L20.14,27.8C19.42,28.22 18.62,28.42 17.84,28.42C17.04,28.42 16.26,28.22 15.54,27.8C14.1,26.96 13.24,25.48 13.24,23.8L13.24,17.1C13.24,15.44 14.1,13.94 15.54,13.1C16.98,12.26 18.7,12.26 20.16,13.1L25.96,16.44C27.4,17.28 28.26,18.76 28.26,20.44C28.26,22.12 27.4,23.62 25.94,24.46Z" fill="#C0C0D6"/>
</svg>
