<svg width="30" height="30" viewBox="0 0 30 30" fill="none" xmlns="http://www.w3.org/2000/svg" xmlns:xlink="http://www.w3.org/1999/xlink">
<path d="M24.664,9.333L4.831,9.333C4.052,9.333 3.414,8.696 3.414,7.917C3.414,7.137 4.052,6.5 4.831,6.5L24.664,6.5C25.443,6.5 26.081,7.137 26.081,7.917C26.081,8.696 25.443,9.333 24.664,9.333ZM21.831,0.833L7.664,0.833C6.885,0.833 6.248,1.471 6.248,2.25C6.248,3.029 6.885,3.667 7.664,3.667L21.831,3.667C22.61,3.667 23.248,3.029 23.248,2.25C23.248,1.471 22.61,0.833 21.831,0.833ZM28.914,15L28.914,26.333C28.914,27.892 27.639,29.167 26.081,29.167L3.414,29.167C1.856,29.167 0.581,27.892 0.581,26.333L0.581,15C0.581,13.442 1.856,12.167 3.414,12.167L26.081,12.167C27.639,12.167 28.914,13.442 28.914,15ZM19.267,20.043L11.914,16.034L11.914,25.285L19.267,21.29C19.763,21.021 19.763,20.312 19.267,20.043Z" fill="#FFFFFF" fill-opacity="0.8"/>
</svg>
