<svg width="12" height="10" viewBox="0 0 12 10" fill="none" xmlns="http://www.w3.org/2000/svg" xmlns:xlink="http://www.w3.org/1999/xlink">
<path d="M5.44,0.167C2.778,0.167 0.606,2.338 0.606,5L3.606,5C3.606,3.995 4.435,3.167 5.44,3.167L5.44,0.167ZM0.606,5C0.606,7.662 2.778,9.833 5.44,9.833L5.44,6.833C4.435,6.833 3.606,6.005 3.606,5L0.606,5ZM5.44,9.833C8.102,9.833 10.273,7.662 10.273,5L7.273,5C7.273,6.005 6.445,6.833 5.44,6.833L5.44,9.833ZM10.273,5C10.273,2.338 8.102,0.167 5.44,0.167L5.44,3.167C6.445,3.167 7.273,3.995 7.273,5L10.273,5Z" transform="rotate(0 5.44 5)" fill="#C0C0D6"/>
</svg>
