<svg width="10" height="10" viewBox="0 0 10 10" fill="none" xmlns="http://www.w3.org/2000/svg" xmlns:xlink="http://www.w3.org/1999/xlink">
<path d="M4.566,0.167C1.904,0.167 -0.268,2.338 -0.268,5L2.732,5C2.732,3.995 3.561,3.167 4.566,3.167L4.566,0.167ZM-0.268,5C-0.268,7.662 1.904,9.833 4.566,9.833L4.566,6.833C3.561,6.833 2.732,6.005 2.732,5L-0.268,5ZM4.566,9.833C7.228,9.833 9.399,7.662 9.399,5L6.399,5C6.399,6.005 5.571,6.833 4.566,6.833L4.566,9.833ZM9.399,5C9.399,2.338 7.228,0.167 4.566,0.167L4.566,3.167C5.571,3.167 6.399,3.995 6.399,5L9.399,5Z" transform="rotate(0 4.566 5)" fill="#C0C0D6"/>
</svg>
