<svg width="10" height="10" viewBox="0 0 10 10" fill="none" xmlns="http://www.w3.org/2000/svg" xmlns:xlink="http://www.w3.org/1999/xlink">
<path d="M4.773,0.167C2.112,0.167 -0.06,2.338 -0.06,5L2.94,5C2.94,3.995 3.768,3.167 4.773,3.167L4.773,0.167ZM-0.06,5C-0.06,7.662 2.112,9.833 4.773,9.833L4.773,6.833C3.768,6.833 2.94,6.005 2.94,5L-0.06,5ZM4.773,9.833C7.435,9.833 9.607,7.662 9.607,5L6.607,5C6.607,6.005 5.778,6.833 4.773,6.833L4.773,9.833ZM9.607,5C9.607,2.338 7.435,0.167 4.773,0.167L4.773,3.167C5.778,3.167 6.607,3.995 6.607,5L9.607,5Z" transform="rotate(0 4.773 5)" fill="#C0C0D6"/>
</svg>
