<svg width="10" height="10" viewBox="0 0 10 10" fill="none" xmlns="http://www.w3.org/2000/svg" xmlns:xlink="http://www.w3.org/1999/xlink">
<path d="M4.351,0.167C1.689,0.167 -0.482,2.338 -0.482,5L2.518,5C2.518,3.995 3.346,3.167 4.351,3.167L4.351,0.167ZM-0.482,5C-0.482,7.662 1.689,9.833 4.351,9.833L4.351,6.833C3.346,6.833 2.518,6.005 2.518,5L-0.482,5ZM4.351,9.833C7.013,9.833 9.184,7.662 9.184,5L6.184,5C6.184,6.005 5.356,6.833 4.351,6.833L4.351,9.833ZM9.184,5C9.184,2.338 7.013,0.167 4.351,0.167L4.351,3.167C5.356,3.167 6.184,3.995 6.184,5L9.184,5Z" transform="rotate(0 4.351 5)" fill="#C0C0D6"/>
</svg>
