<svg width="10" height="10" viewBox="0 0 10 10" fill="none" xmlns="http://www.w3.org/2000/svg" xmlns:xlink="http://www.w3.org/1999/xlink">
<path d="M4.564,0.167C1.902,0.167 -0.27,2.338 -0.27,5L2.73,5C2.73,3.995 3.559,3.167 4.564,3.167L4.564,0.167ZM-0.27,5C-0.27,7.662 1.902,9.833 4.564,9.833L4.564,6.833C3.559,6.833 2.73,6.005 2.73,5L-0.27,5ZM4.564,9.833C7.226,9.833 9.397,7.662 9.397,5L6.397,5C6.397,6.005 5.569,6.833 4.564,6.833L4.564,9.833ZM9.397,5C9.397,2.338 7.226,0.167 4.564,0.167L4.564,3.167C5.569,3.167 6.397,3.995 6.397,5L9.397,5Z" transform="rotate(0 4.564 5)" fill="#C0C0D6"/>
</svg>
