<svg width="48" height="48" viewBox="0 0 48 48" fill="none" xmlns="http://www.w3.org/2000/svg" xmlns:xlink="http://www.w3.org/1999/xlink">
<path d="M39.02,36.3L39.77,37.599L39.78,37.593L39.02,36.3ZM27.14,43.16L27.89,44.459L27.89,44.459L27.14,43.16ZM20.84,43.16L20.09,44.459L20.096,44.462L20.84,43.16ZM8.96,36.3L9.71,35.001L9.71,35.001L8.96,36.3ZM8.96,11.7L8.21,10.401L8.2,10.407L8.96,11.7ZM20.84,4.84L20.09,3.541L20.09,3.541L20.84,4.84ZM27.14,4.84L27.89,3.541L27.884,3.538L27.14,4.84ZM39.02,11.7L39.78,10.407L39.77,10.401L39.02,11.7ZM40.66,17.16L40.66,30.84L43.66,30.84L43.66,17.16L40.66,17.16ZM40.66,30.84C40.66,32.542 39.747,34.133 38.26,35.007L39.78,37.593C42.173,36.187 43.66,33.618 43.66,30.84L40.66,30.84ZM38.27,35.001L26.39,41.861L27.89,44.459L39.77,37.599L38.27,35.001ZM26.39,41.861C24.917,42.712 23.086,42.716 21.584,41.858L20.096,44.462C22.515,45.845 25.484,45.848 27.89,44.459L26.39,41.861ZM21.59,41.861L9.71,35.001L8.21,37.599L20.09,44.459L21.59,41.861ZM9.71,35.001C8.237,34.151 7.32,32.567 7.32,30.84L4.32,30.84C4.32,33.633 5.803,36.21 8.21,37.599L9.71,35.001ZM7.32,30.84L7.32,17.16L4.32,17.16L4.32,30.84L7.32,30.84ZM7.32,17.16C7.32,15.458 8.234,13.867 9.72,12.993L8.2,10.407C5.807,11.813 4.32,14.383 4.32,17.16L7.32,17.16ZM9.71,12.999L21.59,6.139L20.09,3.541L8.21,10.401L9.71,12.999ZM21.59,6.139C23.064,5.288 24.895,5.285 26.396,6.142L27.884,3.538C25.466,2.155 22.497,2.152 20.09,3.541L21.59,6.139ZM26.39,6.139L38.27,12.999L39.77,10.401L27.89,3.541L26.39,6.139ZM38.26,12.993C39.749,13.868 40.66,15.44 40.66,17.16L43.66,17.16C43.66,14.36 42.171,11.812 39.78,10.407L38.26,12.993Z" fill="#C0C0D6"/>
<path d="M24.34,18.8L23.588,20.098L23.59,20.099L24.34,18.8ZM26.42,20L25.67,21.299L25.67,21.299L26.42,20ZM28.5,21.2L29.252,19.902L29.25,19.901L28.5,21.2ZM28.5,26.8L29.25,28.099L29.252,28.098L28.5,26.8ZM26.42,28L25.67,26.701L25.67,26.701L26.42,28ZM24.34,29.2L23.59,27.901L23.588,27.902L24.34,29.2ZM21,24L21,21.6L18,21.6L18,24L21,24ZM21,21.6C21,20.381 21.42,19.913 21.673,19.766C21.926,19.62 22.537,19.49 23.588,20.098L25.092,17.502C23.483,16.57 21.674,16.3 20.172,17.169C18.67,18.037 18,19.74 18,21.6L21,21.6ZM23.59,20.099L25.67,21.299L27.17,18.701L25.09,17.501L23.59,20.099ZM25.67,21.299L27.75,22.499L29.25,19.901L27.17,18.701L25.67,21.299ZM27.748,22.498C28.799,23.107 28.995,23.704 28.995,24C28.995,24.297 28.799,24.894 27.748,25.502L29.252,28.098C30.861,27.167 31.995,25.734 31.995,24C31.995,22.267 30.861,20.833 29.252,19.902L27.748,22.498ZM27.75,25.501L25.67,26.701L27.17,29.299L29.25,28.099L27.75,25.501ZM25.67,26.701L23.59,27.901L25.09,30.499L27.17,29.299L25.67,26.701ZM23.588,27.902C22.537,28.51 21.926,28.38 21.673,28.234C21.42,28.087 21,27.62 21,26.4L18,26.4C18,28.261 18.67,29.963 20.172,30.831C21.674,31.7 23.483,31.43 25.092,30.498L23.588,27.902ZM21,26.4L21,24L18,24L18,26.4L21,26.4Z" fill="#C0C0D6"/>
</svg>
