<svg width="40" height="40" viewBox="0 0 40 40" fill="none" xmlns="http://www.w3.org/2000/svg" xmlns:xlink="http://www.w3.org/1999/xlink">
<path d="M27.917,5.933L27.917,3.333C27.917,2.65 27.35,2.083 26.667,2.083C25.984,2.083 25.417,2.65 25.417,3.333L25.417,5.833L14.584,5.833L14.584,3.333C14.584,2.65 14.017,2.083 13.334,2.083C12.65,2.083 12.084,2.65 12.084,3.333L12.084,5.933C7.584,6.35 5.4,9.033 5.067,13.017C5.034,13.5 5.434,13.9 5.9,13.9L34.1,13.9C34.584,13.9 34.984,13.483 34.934,13.017C34.6,9.033 32.417,6.35 27.917,5.933Z" fill="#828293"/>
<g opacity="0.4">
<path d="M33.333,16.4C34.25,16.4 35,17.15 35,18.067L35,28.333C35,33.333 32.5,36.667 26.667,36.667L13.333,36.667C7.5,36.667 5,33.333 5,28.333L5,18.067C5,17.15 5.75,16.4 6.667,16.4L33.333,16.4Z" fill="#828293"/>
</g>
<path d="M14.167,25C13.95,25 13.733,24.95 13.533,24.867C13.333,24.783 13.15,24.667 12.983,24.517C12.833,24.35 12.717,24.167 12.633,23.967C12.55,23.767 12.5,23.55 12.5,23.333C12.5,23.117 12.55,22.9 12.633,22.7C12.717,22.5 12.833,22.317 12.983,22.15C13.15,22 13.333,21.883 13.533,21.8C13.933,21.633 14.4,21.633 14.8,21.8C15,21.883 15.183,22 15.35,22.15C15.5,22.317 15.617,22.5 15.7,22.7C15.783,22.9 15.833,23.117 15.833,23.333C15.833,23.55 15.783,23.767 15.7,23.967C15.617,24.167 15.5,24.35 15.35,24.517C15.183,24.667 15,24.783 14.8,24.867C14.6,24.95 14.383,25 14.167,25Z" fill="#828293"/>
<path d="M20,25C19.783,25 19.567,24.95 19.367,24.867C19.167,24.783 18.984,24.667 18.817,24.517C18.517,24.2 18.333,23.767 18.333,23.333C18.333,22.9 18.517,22.467 18.817,22.15C18.984,22 19.167,21.883 19.367,21.8C19.767,21.617 20.234,21.617 20.633,21.8C20.833,21.883 21.017,22 21.183,22.15C21.483,22.467 21.667,22.9 21.667,23.333C21.667,23.767 21.483,24.2 21.183,24.517C21.017,24.667 20.833,24.783 20.633,24.867C20.433,24.95 20.217,25 20,25Z" fill="#828293"/>
<path d="M14.167,30.833C13.95,30.833 13.733,30.783 13.533,30.7C13.333,30.617 13.15,30.5 12.983,30.35C12.683,30.033 12.5,29.6 12.5,29.167C12.5,28.733 12.683,28.3 12.983,27.983C13.15,27.833 13.333,27.717 13.533,27.633C13.933,27.467 14.4,27.467 14.8,27.633C15,27.717 15.183,27.833 15.35,27.983C15.65,28.3 15.833,28.733 15.833,29.167C15.833,29.6 15.65,30.033 15.35,30.35C15.183,30.5 15,30.617 14.8,30.7C14.6,30.783 14.383,30.833 14.167,30.833Z" fill="#828293"/>
</svg>
