<svg width="50" height="50" viewBox="0 0 50 50" fill="none" xmlns="http://www.w3.org/2000/svg" xmlns:xlink="http://www.w3.org/1999/xlink">
<path d="M15.083,4.167L11.125,4.167C6.563,4.167 4.167,6.563 4.167,11.104L4.167,15.063C4.167,19.604 6.563,22 11.104,22L15.063,22C19.604,22 22,19.604 22,15.063L22,11.104C22.021,6.563 19.625,4.167 15.083,4.167Z" fill="#828293"/>
<g opacity="0.4">
<path d="M38.896,4.167L34.938,4.167C30.396,4.167 28,6.563 28,11.104L28,15.063C28,19.604 30.396,22 34.938,22L38.896,22C43.438,22 45.833,19.604 45.833,15.063L45.833,11.104C45.833,6.563 43.438,4.167 38.896,4.167Z" fill="#828293"/>
</g>
<path d="M38.896,27.979L34.938,27.979C30.396,27.979 28,30.375 28,34.917L28,38.875C28,43.417 30.396,45.813 34.938,45.813L38.896,45.813C43.438,45.813 45.833,43.417 45.833,38.875L45.833,34.917C45.833,30.375 43.438,27.979 38.896,27.979Z" fill="#828293"/>
<g opacity="0.4">
<path d="M15.083,27.979L11.125,27.979C6.563,27.979 4.167,30.375 4.167,34.917L4.167,38.875C4.167,43.438 6.563,45.833 11.104,45.833L15.063,45.833C19.604,45.833 22,43.438 22,38.896L22,34.938C22.021,30.375 19.625,27.979 15.083,27.979Z" fill="#828293"/>
</g>
</svg>
