<svg width="42" height="42" viewBox="0 0 42 42" fill="none" xmlns="http://www.w3.org/2000/svg" xmlns:xlink="http://www.w3.org/1999/xlink">
<path d="M32.97,25.148L31.304,22.382C30.954,21.765 30.637,20.598 30.637,19.915L30.637,15.698C30.637,10.265 26.22,5.832 20.77,5.832C15.32,5.832 10.903,10.265 10.903,15.698L10.903,19.915C10.903,20.598 10.587,21.765 10.237,22.365L8.553,25.148C7.887,26.265 7.737,27.498 8.153,28.632C8.553,29.748 9.503,30.615 10.737,31.032C13.97,32.132 17.37,32.665 20.77,32.665C24.17,32.665 27.57,32.132 30.804,31.048C31.97,30.665 32.87,29.782 33.304,28.632C33.737,27.482 33.62,26.215 32.97,25.148Z" stroke="#C0C0D6" stroke-width="1.5" stroke-miterlimit="3.999327"/>
<path d="M24.487,6.533C23.337,6.083 22.087,5.833 20.77,5.833C19.47,5.833 18.22,6.066 17.07,6.533C17.787,5.183 19.203,4.333 20.77,4.333C22.353,4.333 23.753,5.183 24.487,6.533Z" stroke="#C0C0D6" stroke-width="1.5" stroke-miterlimit="3.999327"/>
<path d="M25.452,34.348C24.752,36.282 22.902,37.665 20.736,37.665C19.419,37.665 18.119,37.132 17.202,36.182C16.669,35.682 16.269,35.015 16.036,34.332C16.252,34.365 16.469,34.382 16.702,34.415C17.086,34.465 17.486,34.515 17.886,34.548C18.836,34.632 19.802,34.682 20.769,34.682C21.719,34.682 22.669,34.632 23.602,34.548C23.952,34.515 24.302,34.498 24.636,34.448C24.902,34.415 25.169,34.382 25.452,34.348Z" stroke="#C0C0D6" stroke-width="1.5" stroke-miterlimit="3.999327"/>
<path d="M35.864,8.859C35.864,11.432 33.779,13.517 31.206,13.517C28.633,13.517 26.548,11.432 26.548,8.859C26.548,6.287 28.633,4.201 31.206,4.201C33.779,4.201 35.864,6.287 35.864,8.859Z" fill="#C0C0D6" stroke="#C0C0D6" stroke-width="1.5" stroke-miterlimit="3.999327"/>
</svg>
