<svg width="42" height="42" viewBox="0 0 42 42" fill="none" xmlns="http://www.w3.org/2000/svg" xmlns:xlink="http://www.w3.org/1999/xlink">
<path d="M19.069,40.317L19.069,35.266C19.069,34.734 18.651,34.299 18.123,34.239C10.222,33.353 4.069,26.628 4.069,18.5C4.069,9.767 11.169,2.667 19.903,2.667C28.636,2.667 35.736,9.767 35.736,18.5C35.736,26.75 30.003,35.05 21.453,39.167L19.069,40.317Z" stroke="#017EFA" stroke-width="1.5" stroke-miterlimit="3.999327"/>
<path d="M21.169,24.078L18.636,24.078L18.636,26.9L21.169,26.9L21.169,24.078Z" fill="#017EFA"/>
<path d="M18.636,21.962L21.169,21.962C21.169,18.788 24.969,18.436 24.969,14.909C24.969,11.791 22.702,9.266 19.903,9.266C17.103,9.266 14.836,11.791 14.836,14.909L17.369,14.909C17.369,13.357 18.509,12.088 19.903,12.088C21.296,12.088 22.436,13.357 22.436,14.909C22.436,17.73 18.636,17.378 18.636,21.962Z" fill="#017EFA"/>
</svg>
