<svg width="42" height="42" viewBox="0 0 42 42" fill="none" xmlns="http://www.w3.org/2000/svg" xmlns:xlink="http://www.w3.org/1999/xlink">
<path d="M26.684,21.584L26.684,28.584C26.684,34.417 24.351,36.751 18.517,36.751L11.517,36.751C5.684,36.751 3.351,34.417 3.351,28.584L3.351,21.584C3.351,15.751 5.684,13.417 11.517,13.417L18.517,13.417C24.351,13.417 26.684,15.751 26.684,21.584Z" fill="#1F2020"/>
<g opacity="0.4">
<path d="M28.517,3.417L21.517,3.417C15.767,3.417 13.434,5.701 13.367,11.334L18.517,11.334C25.517,11.334 28.767,14.584 28.767,21.584L28.767,26.734C34.401,26.667 36.684,24.334 36.684,18.584L36.684,11.584C36.684,5.751 34.351,3.417 28.517,3.417Z" fill="#1F2020"/>
</g>
</svg>
