<svg width="42" height="42" viewBox="0 0 42 42" fill="none" xmlns="http://www.w3.org/2000/svg" xmlns:xlink="http://www.w3.org/1999/xlink">
<path d="M26.684,22.144L26.684,29.144C26.684,34.977 24.351,37.311 18.517,37.311L11.517,37.311C5.684,37.311 3.351,34.977 3.351,29.144L3.351,22.144C3.351,16.311 5.684,13.977 11.517,13.977L18.517,13.977C24.351,13.977 26.684,16.311 26.684,22.144Z" fill="#1F2020"/>
<g opacity="0.4">
<path d="M28.517,3.977L21.517,3.977C15.767,3.977 13.434,6.261 13.367,11.894L18.517,11.894C25.517,11.894 28.767,15.144 28.767,22.144L28.767,27.294C34.401,27.227 36.684,24.894 36.684,19.144L36.684,12.144C36.684,6.311 34.351,3.977 28.517,3.977Z" fill="#1F2020"/>
</g>
</svg>
