<svg width="40" height="40" viewBox="0 0 40 40" fill="none" xmlns="http://www.w3.org/2000/svg" xmlns:xlink="http://www.w3.org/1999/xlink">
<path d="M26.053,20.569L26.053,27.428C26.053,33.145 23.767,35.431 18.05,35.431L11.191,35.431C5.474,35.431 3.188,33.145 3.188,27.428L3.188,20.569C3.188,14.852 5.474,12.566 11.191,12.566L18.05,12.566C23.767,12.566 26.053,14.852 26.053,20.569Z" fill="#1F2020"/>
<g opacity="0.4">
<path d="M27.85,2.766L20.99,2.766C15.355,2.766 13.069,5.004 13.003,10.524L18.05,10.524C24.91,10.524 28.095,13.709 28.095,20.569L28.095,25.615C33.615,25.55 35.853,23.263 35.853,17.629L35.853,10.769C35.853,5.053 33.566,2.766 27.85,2.766Z" fill="#1F2020"/>
</g>
</svg>
