<svg width="40" height="42" viewBox="0 0 40 42" fill="none" xmlns="http://www.w3.org/2000/svg" xmlns:xlink="http://www.w3.org/1999/xlink">
<path d="M26.053,21.891L26.053,28.751C26.053,34.467 23.767,36.754 18.05,36.754L11.191,36.754C5.474,36.754 3.188,34.467 3.188,28.751L3.188,21.891C3.188,16.175 5.474,13.888 11.191,13.888L18.05,13.888C23.767,13.888 26.053,16.175 26.053,21.891Z" fill="#1F2020"/>
<g opacity="0.4">
<path d="M27.85,4.089L20.99,4.089C15.355,4.089 13.069,6.326 13.003,11.847L18.05,11.847C24.91,11.847 28.095,15.032 28.095,21.891L28.095,26.938C33.615,26.873 35.853,24.586 35.853,18.951L35.853,12.092C35.853,6.375 33.566,4.089 27.85,4.089Z" fill="#1F2020"/>
</g>
</svg>
