<svg width="40" height="40" viewBox="0 0 40 40" fill="none" xmlns="http://www.w3.org/2000/svg" xmlns:xlink="http://www.w3.org/1999/xlink">
<path d="M26.053,21.25L26.053,28.109C26.053,33.826 23.767,36.112 18.05,36.112L11.191,36.112C5.474,36.112 3.188,33.826 3.188,28.109L3.188,21.25C3.188,15.533 5.474,13.247 11.191,13.247L18.05,13.247C23.767,13.247 26.053,15.533 26.053,21.25Z" fill="#1F2020"/>
<g opacity="0.4">
<path d="M27.85,3.447L20.99,3.447C15.355,3.447 13.069,5.685 13.003,11.205L18.05,11.205C24.91,11.205 28.095,14.39 28.095,21.25L28.095,26.297C33.615,26.231 35.853,23.945 35.853,18.31L35.853,11.45C35.853,5.734 33.566,3.447 27.85,3.447Z" fill="#1F2020"/>
</g>
</svg>
