<svg width="92" height="90" viewBox="0 0 92 90" fill="none" xmlns="http://www.w3.org/2000/svg" xmlns:xlink="http://www.w3.org/1999/xlink">
<path d="M29.932,47.357C28.466,47.357 27.278,46.169 27.278,44.703L27.278,44.703C27.278,43.237 28.466,42.049 29.932,42.049L61.78,42.049C63.246,42.049 64.434,43.237 64.434,44.703L64.434,44.703C64.434,46.169 63.246,47.357 61.78,47.357L29.932,47.357Z" transform="rotate(90 45.856 44.703)" fill="#017EFA"/>
<path d="M29.932,47.356C28.467,47.356 27.278,46.168 27.278,44.702L27.278,44.702C27.278,43.236 28.467,42.048 29.932,42.048L61.78,42.048C63.246,42.048 64.434,43.236 64.434,44.702L64.434,44.702C64.434,46.168 63.246,47.356 61.78,47.356L29.932,47.356Z" transform="rotate(270 45.856 44.702)" fill="#017EFA"/>
</svg>
