<svg width="1010" height="810" viewBox="0 0 1010 810" fill="none" xmlns="http://www.w3.org/2000/svg" xmlns:xlink="http://www.w3.org/1999/xlink">
<path d="M210.752,0L210.752,808.578L213.752,808.578L213.752,0L210.752,0ZM397.076,0L397.076,808.578L400.076,808.578L400.076,0L397.076,0ZM583.402,0L583.4,808.578L586.4,808.578L586.402,0L583.402,0ZM769.726,0L769.726,808.578L772.726,808.578L772.726,0L769.726,0ZM956.05,0L956.05,808.578L959.05,808.578L959.05,0L956.05,0ZM0,110.922L1008.966,110.922L1008.966,107.922L0,107.922L0,110.922ZM0,262.09L1008.966,262.09L1008.966,259.09L0,259.09L0,262.09ZM0,413.26L1008.966,413.26L1008.966,410.26L0,410.26L0,413.26ZM0,564.428L1008.966,564.428L1008.966,561.428L0,561.428L0,564.428ZM0,715.598L1008.966,715.598L1008.966,712.598L0,712.598L0,715.598Z" transform="rotate(360 504.483 404.289)" fill="url(#ps_0_33_2556)"/>
<path d="M49.744,102.303L49.744,85.025L53.664,85.025L53.664,102.303L49.744,102.303ZM43.065,95.624L43.065,91.704L60.343,91.704L60.343,95.624L43.065,95.624Z" transform="rotate(360 424.229 396.704)" fill="#353E57"/>
<path d="M235.873,102.303L235.873,85.025L239.793,85.025L239.793,102.303L235.873,102.303ZM229.194,95.624L229.194,91.704L246.473,91.704L246.473,95.624L229.194,95.624Z" transform="rotate(360 424.229 396.704)" fill="#353E57"/>
<path d="M422.197,103.181L422.197,85.903L426.117,85.903L426.117,103.181L422.197,103.181ZM415.519,96.502L415.519,92.582L432.797,92.582L432.797,96.502L415.519,96.502Z" transform="rotate(360 424.229 396.704)" fill="#353E57"/>
<path d="M608.713,102.303L608.713,85.025L612.633,85.025L612.633,102.303L608.713,102.303ZM602.035,95.624L602.035,91.704L619.313,91.704L619.313,95.624L602.035,95.624Z" transform="rotate(360 424.229 396.704)" fill="#353E57"/>
<path d="M794.795,102.302L794.795,85.024L798.715,85.024L798.715,102.302L794.795,102.302ZM788.115,95.623L788.115,91.703L805.393,91.703L805.393,95.623L788.115,95.623Z" transform="rotate(360 424.229 396.704)" fill="#353E57"/>
<path d="M49.744,254L49.744,236.721L53.664,236.721L53.664,254L49.744,254ZM43.065,247.321L43.065,243.401L60.343,243.401L60.343,247.321L43.065,247.321Z" transform="rotate(360 424.229 396.704)" fill="#353E57"/>
<path d="M235.873,254L235.873,236.721L239.793,236.721L239.793,254L235.873,254ZM229.194,247.321L229.194,243.401L246.473,243.401L246.473,247.321L229.194,247.321Z" transform="rotate(360 424.229 396.704)" fill="#353E57"/>
<path d="M422.197,254.878L422.197,237.6L426.117,237.6L426.117,254.878L422.197,254.878ZM415.519,248.199L415.519,244.279L432.797,244.279L432.797,248.199L415.519,248.199Z" transform="rotate(360 424.229 396.704)" fill="#353E57"/>
<path d="M608.713,254L608.713,236.721L612.633,236.721L612.633,254L608.713,254ZM602.035,247.321L602.035,243.401L619.313,243.401L619.313,247.321L602.035,247.321Z" transform="rotate(360 424.229 396.704)" fill="#353E57"/>
<path d="M794.795,253.999L794.795,236.721L798.715,236.721L798.715,253.999L794.795,253.999ZM788.115,247.32L788.115,243.4L805.393,243.4L805.393,247.32L788.115,247.32Z" transform="rotate(360 424.229 396.704)" fill="#353E57"/>
<path d="M49.744,405.168L49.744,387.89L53.664,387.89L53.664,405.168L49.744,405.168ZM43.065,398.488L43.065,394.568L60.343,394.568L60.343,398.488L43.065,398.488Z" transform="rotate(360 424.229 396.704)" fill="#353E57"/>
<path d="M235.873,405.168L235.873,387.89L239.793,387.89L239.793,405.168L235.873,405.168ZM229.194,398.488L229.194,394.568L246.473,394.568L246.473,398.488L229.194,398.488Z" transform="rotate(360 424.229 396.704)" fill="#353E57"/>
<path d="M422.197,406.046L422.197,388.768L426.117,388.768L426.117,406.046L422.197,406.046ZM415.519,399.368L415.519,395.448L432.797,395.448L432.797,399.368L415.519,399.368Z" transform="rotate(360 424.229 396.704)" fill="#353E57"/>
<path d="M608.713,405.168L608.713,387.89L612.633,387.89L612.633,405.168L608.713,405.168ZM602.035,398.488L602.035,394.568L619.313,394.568L619.313,398.488L602.035,398.488Z" transform="rotate(360 424.229 396.704)" fill="#353E57"/>
<path d="M794.795,405.168L794.795,387.89L798.715,387.89L798.715,405.168L794.795,405.168ZM788.115,398.488L788.115,394.568L805.393,394.568L805.393,398.488L788.115,398.488Z" transform="rotate(360 424.229 396.704)" fill="#353E57"/>
<path d="M49.744,556.338L49.744,539.058L53.664,539.058L53.664,556.338L49.744,556.338ZM43.065,549.658L43.065,545.738L60.343,545.738L60.343,549.658L43.065,549.658Z" transform="rotate(360 424.229 396.704)" fill="#353E57"/>
<path d="M235.873,556.338L235.873,539.058L239.793,539.058L239.793,556.338L235.873,556.338ZM229.194,549.658L229.194,545.738L246.473,545.738L246.473,549.658L229.194,549.658Z" transform="rotate(360 424.229 396.704)" fill="#353E57"/>
<path d="M422.197,557.216L422.197,539.938L426.117,539.938L426.117,557.216L422.197,557.216ZM415.519,550.536L415.519,546.616L432.797,546.616L432.797,550.536L415.519,550.536Z" transform="rotate(360 424.229 396.704)" fill="#353E57"/>
<path d="M608.713,556.338L608.713,539.058L612.633,539.058L612.633,556.338L608.713,556.338ZM602.035,549.658L602.035,545.738L619.313,545.738L619.313,549.658L602.035,549.658Z" transform="rotate(360 424.229 396.704)" fill="#353E57"/>
<path d="M794.795,556.336L794.795,539.058L798.715,539.058L798.715,556.336L794.795,556.336ZM788.115,549.658L788.115,545.738L805.393,545.738L805.393,549.658L788.115,549.658Z" transform="rotate(360 424.229 396.704)" fill="#353E57"/>
<path d="M49.744,707.506L49.744,690.228L53.664,690.228L53.664,707.506L49.744,707.506ZM43.065,700.826L43.065,696.906L60.343,696.906L60.343,700.826L43.065,700.826Z" transform="rotate(360 424.229 396.704)" fill="#353E57"/>
<path d="M235.873,707.506L235.873,690.228L239.793,690.228L239.793,707.506L235.873,707.506ZM229.194,700.826L229.194,696.906L246.473,696.906L246.473,700.826L229.194,700.826Z" transform="rotate(360 424.229 396.704)" fill="#353E57"/>
<path d="M422.197,708.384L422.197,691.106L426.117,691.106L426.117,708.384L422.197,708.384ZM415.519,701.706L415.519,697.786L432.797,697.786L432.797,701.706L415.519,701.706Z" transform="rotate(360 424.229 396.704)" fill="#353E57"/>
<path d="M608.713,707.506L608.713,690.228L612.633,690.228L612.633,707.506L608.713,707.506ZM602.035,700.826L602.035,696.906L619.313,696.906L619.313,700.826L602.035,700.826Z" transform="rotate(360 424.229 396.704)" fill="#353E57"/>
<path d="M794.795,707.506L794.795,690.228L798.715,690.228L798.715,707.506L794.795,707.506ZM788.115,700.826L788.115,696.906L805.393,696.906L805.393,700.826L788.115,700.826Z" transform="rotate(360 424.229 396.704)" fill="#353E57"/>
<defs>
<radialGradient id="ps_0_33_2556" cx="0" cy="0" r="1" gradientUnits="userSpaceOnUse" gradientTransform="matrix(0 -202.144592 252.241302 0 252.241 202.144)">
<stop stop-color="#FFFFFF" stop-opacity="0.04"/>
<stop offset="1" stop-color="#FFFFFF" stop-opacity="0.04"/>
</radialGradient>
</defs>
</svg>
