<svg width="20" height="34" viewBox="0 0 20 34" fill="none" xmlns="http://www.w3.org/2000/svg" xmlns:xlink="http://www.w3.org/1999/xlink">
<path d="M6.91,21.679C8.137,20.305 8.815,18.527 8.815,16.684L8.815,16.023C8.815,14.18 8.137,12.402 6.91,11.028L1.219,4.655C0.201,3.514 0.201,1.791 1.219,0.65L1.219,0.65C2.414,-0.689 4.509,-0.689 5.704,0.65L18.239,14.688C19.086,15.637 19.086,17.07 18.239,18.019L5.704,32.057C4.509,33.396 2.414,33.396 1.219,32.057L1.219,32.057C0.201,30.917 0.201,29.193 1.219,28.053L6.91,21.679Z" clip-rule="evenodd" fill-rule="evenodd" transform="rotate(0 9.578 16.354)" fill="#FFFFFF"/>
</svg>
