<svg width="18" height="34" viewBox="0 0 18 34" fill="none" xmlns="http://www.w3.org/2000/svg" xmlns:xlink="http://www.w3.org/1999/xlink">
<path d="M5.753,21.679C6.98,20.305 7.658,18.527 7.658,16.684L7.658,16.023C7.658,14.18 6.98,12.402 5.753,11.028L0.062,4.655C-0.957,3.514 -0.957,1.791 0.062,0.65L0.062,0.65C1.257,-0.689 3.351,-0.689 4.547,0.65L17.082,14.688C17.929,15.637 17.929,17.07 17.082,18.019L4.547,32.057C3.351,33.396 1.257,33.396 0.062,32.057L0.062,32.057C-0.957,30.917 -0.957,29.193 0.062,28.053L5.753,21.679Z" clip-rule="evenodd" fill-rule="evenodd" transform="rotate(-360 8.421 16.354)" fill="#FFFFFF"/>
</svg>
