<svg width="42" height="42" viewBox="0 0 42 42" fill="none" xmlns="http://www.w3.org/2000/svg" xmlns:xlink="http://www.w3.org/1999/xlink">
<path d="M41.833,26.63L41.833,29.512C41.833,29.99 41.812,30.473 41.77,30.951C41.186,37.533 36.614,41.833 30.018,41.833L11.982,41.833C8.642,41.833 5.823,40.749 3.799,38.784C3.005,38.055 2.337,37.198 1.815,36.217C2.504,35.379 3.277,34.462 4.028,33.543C5.302,32.019 6.533,30.513 7.306,29.533C8.454,28.113 11.481,24.374 15.676,26.129C16.532,26.484 17.284,26.985 17.973,27.424C19.664,28.551 20.373,28.886 21.563,28.238C22.878,27.528 23.734,26.129 24.632,24.666C25.112,23.892 25.592,23.142 26.114,22.452C28.389,19.487 31.896,18.693 34.819,20.447C36.28,21.325 37.533,22.432 38.702,23.557C38.952,23.808 39.203,24.04 39.432,24.27C39.745,24.583 40.789,25.627 41.833,26.63Z" fill="#828293"/>
<g opacity="0.4" style="isolation:isolate">
<path d="M30.039,0.166L11.982,0.166C4.905,0.166 0.167,5.116 0.167,12.487L0.167,29.512C0.167,32.079 0.751,34.358 1.816,36.216C2.505,35.379 3.277,34.462 4.028,33.541C5.302,32.018 6.533,30.512 7.306,29.533C8.454,28.112 11.481,24.374 15.677,26.128C16.533,26.483 17.284,26.985 17.973,27.423C19.664,28.551 20.374,28.885 21.564,28.236C22.879,27.528 23.735,26.128 24.632,24.664C25.112,23.891 25.592,23.141 26.114,22.452C28.39,19.486 31.897,18.693 34.819,20.447C36.28,21.324 37.533,22.431 38.702,23.557C38.953,23.808 39.203,24.039 39.433,24.269C39.746,24.58 40.79,25.625 41.833,26.629L41.833,12.487C41.833,5.116 37.095,0.166 30.039,0.166Z" fill="#828293"/>
</g>
<path d="M19.863,14.326C19.863,17.26 17.419,19.704 14.486,19.704C11.555,19.704 9.11,17.26 9.11,14.326C9.11,11.393 11.555,8.948 14.486,8.948C17.419,8.948 19.863,11.393 19.863,14.326Z" fill="#828293"/>
</svg>
