<svg width="40" height="40" viewBox="0 0 40 40" fill="none" xmlns="http://www.w3.org/2000/svg" xmlns:xlink="http://www.w3.org/1999/xlink">
<path d="M24.983,27.669C24.155,27.669 23.483,28.34 23.483,29.169C23.483,29.997 24.155,30.669 24.983,30.669L24.983,27.669ZM24.983,9.335C24.155,9.335 23.483,10.007 23.483,10.835C23.483,11.664 24.155,12.335 24.983,12.335L24.983,9.335ZM24.983,30.669L27.5,30.669L27.5,27.669L24.983,27.669L24.983,30.669ZM27.5,30.669C33.36,30.669 38.167,25.882 38.167,20.002L35.167,20.002C35.167,24.222 31.707,27.669 27.5,27.669L27.5,30.669ZM38.167,20.002C38.167,14.142 33.38,9.335 27.5,9.335L27.5,12.335C31.72,12.335 35.167,15.795 35.167,20.002L38.167,20.002ZM27.5,9.335L24.983,9.335L24.983,12.335L27.5,12.335L27.5,9.335Z" fill="#FFFFFF"/>
<path d="M15,12.335C15.828,12.335 16.5,11.664 16.5,10.835C16.5,10.007 15.828,9.335 15,9.335L15,12.335ZM15,30.669C15.828,30.669 16.5,29.997 16.5,29.169C16.5,28.34 15.828,27.669 15,27.669L15,30.669ZM15,9.335L12.5,9.335L12.5,12.335L15,12.335L15,9.335ZM12.5,9.335C6.621,9.335 1.833,14.123 1.833,20.002L4.833,20.002C4.833,15.78 8.278,12.335 12.5,12.335L12.5,9.335ZM1.833,20.002C1.833,25.862 6.619,30.669 12.5,30.669L12.5,27.669C8.28,27.669 4.833,24.209 4.833,20.002L1.833,20.002ZM12.5,30.669L15,30.669L15,27.669L12.5,27.669L12.5,30.669Z" fill="#FFFFFF"/>
<line x1="13.333" y1="18.5" x2="26.666" y2="18.5" stroke="#FFFFFF" stroke-width="1.5" stroke-miterlimit="3.999327" stroke-linecap="round" stroke-linejoin="round"/>
</svg>
