<svg width="48" height="48" viewBox="0 0 48 48" fill="none" xmlns="http://www.w3.org/2000/svg" xmlns:xlink="http://www.w3.org/1999/xlink">
<path d="M30.009,7.615C29.244,6.818 27.978,6.792 27.181,7.557C26.384,8.322 26.358,9.588 27.122,10.385L30.009,7.615ZM42,23L43.443,24.385C44.185,23.611 44.185,22.389 43.443,21.615L42,23ZM27.122,35.615C26.358,36.412 26.384,37.678 27.181,38.443C27.978,39.208 29.244,39.182 30.009,38.385L27.122,35.615ZM27.122,10.385L40.556,24.385L43.443,21.615L30.009,7.615L27.122,10.385ZM40.556,21.615L27.122,35.615L30.009,38.385L43.443,24.385L40.556,21.615Z" fill="#FFFFFF"/>
<line x1="41.466" y1="23.063" x2="6" y2="23.063" stroke="#FFFFFF" stroke-width="2" stroke-miterlimit="3.999327" stroke-linecap="round"/>
</svg>
