<svg width="48" height="48" viewBox="0 0 48 48" fill="none" xmlns="http://www.w3.org/2000/svg" xmlns:xlink="http://www.w3.org/1999/xlink">
<path d="M23.94,45.5C12.1,45.5 2.44,35.86 2.44,24C2.44,12.14 12.1,2.5 23.94,2.5C35.78,2.5 45.44,12.14 45.44,24C45.44,35.86 35.8,45.5 23.94,45.5ZM23.94,5.5C13.74,5.5 5.44,13.8 5.44,24C5.44,34.2 13.74,42.5 23.94,42.5C34.14,42.5 42.44,34.2 42.44,24C42.44,13.8 34.14,5.5 23.94,5.5Z" fill="#C0C0D6"/>
<path d="M21.12,33.98C20.24,33.98 19.4,33.76 18.66,33.34C16.94,32.34 15.98,30.38 15.98,27.82L15.98,21.12C15.98,18.56 16.92,16.6 18.64,15.6C20.36,14.6 22.54,14.76 24.76,16.04L30.56,19.38C32.78,20.66 34,22.46 34,24.46C34,26.44 32.78,28.26 30.56,29.54L24.76,32.88C23.52,33.62 22.26,33.98 21.12,33.98ZM21.12,17.94C20.76,17.94 20.42,18.02 20.16,18.18C19.4,18.62 18.98,19.68 18.98,21.12L18.98,27.82C18.98,29.24 19.4,30.32 20.16,30.74C20.9,31.18 22.04,31 23.28,30.3L29.08,26.96C30.32,26.24 31.02,25.34 31.02,24.48C31.02,23.62 30.3,22.72 29.08,22L23.28,18.66C22.48,18.18 21.74,17.94 21.12,17.94Z" fill="#C0C0D6"/>
</svg>
