<svg width="40" height="42" viewBox="0 0 40 42" fill="none" xmlns="http://www.w3.org/2000/svg" xmlns:xlink="http://www.w3.org/1999/xlink">
<path d="M19.025,26.896C15.682,26.896 12.978,24.292 12.978,21.021C12.978,17.75 15.682,15.125 19.025,15.125C22.367,15.125 25.007,17.75 25.007,21.021C25.007,24.292 22.367,26.896 19.025,26.896Z" fill="#828293"/>
<g opacity="0.4" style="isolation:isolate">
<path d="M38.229,25.938C37.825,25.313 37.25,24.688 36.505,24.292C35.908,24 35.525,23.521 35.185,22.959C34.099,21.167 34.737,18.813 36.547,17.75C38.676,16.563 39.358,13.917 38.123,11.854L36.696,9.396C35.483,7.334 32.821,6.604 30.713,7.813C28.84,8.813 26.434,8.146 25.348,6.375C25.008,5.792 24.816,5.167 24.858,4.542C24.922,3.729 24.667,2.959 24.284,2.334C23.496,1.042 22.069,0.167 20.494,0.167L17.492,0.167C15.938,0.209 14.511,1.042 13.723,2.334C13.319,2.959 13.085,3.729 13.127,4.542C13.17,5.167 12.978,5.792 12.638,6.375C11.552,8.146 9.146,8.813 7.294,7.813C5.165,6.604 2.524,7.334 1.29,9.396L-0.137,11.854C-1.35,13.917 -0.669,16.563 1.439,17.75C3.248,18.813 3.887,21.167 2.823,22.959C2.461,23.521 2.077,24 1.481,24.292C0.757,24.688 0.119,25.313 -0.222,25.938C-1.01,27.23 -0.967,28.855 -0.179,30.209L1.29,32.709C2.077,34.042 3.546,34.875 5.079,34.875C5.803,34.875 6.655,34.667 7.336,34.25C7.868,33.896 8.507,33.771 9.21,33.771C11.318,33.771 13.085,35.5 13.127,37.563C13.127,39.959 15.086,41.834 17.556,41.834L20.451,41.834C22.9,41.834 24.858,39.959 24.858,37.563C24.922,35.5 26.69,33.771 28.797,33.771C29.479,33.771 30.117,33.896 30.671,34.25C31.352,34.667 32.183,34.875 32.928,34.875C34.439,34.875 35.908,34.042 36.696,32.709L38.187,30.209C38.953,28.813 39.017,27.23 38.229,25.938Z" fill="#828293"/>
</g>
</svg>
