<svg width="782" height="202" viewBox="0 0 782 202" fill="none" xmlns="http://www.w3.org/2000/svg" xmlns:xlink="http://www.w3.org/1999/xlink">
<g filter="url(#filter33_3552)">
<path d="M32.189,-0.037C14.412,-0.037 0,14.375 0,32.152L0,64.402C0.356,64.39 0.713,64.385 1.072,64.385C19.442,64.385 34.334,79.277 34.334,97.647C34.334,116.017 19.442,130.909 1.072,130.909C0.713,130.909 0.356,130.903 0,130.892L0,169.095C0,186.872 14.412,201.283 32.189,201.283L748.936,201.283C766.714,201.283 781.126,186.872 781.126,169.095L781.126,32.152C781.126,14.374 766.714,-0.037 748.936,-0.037L32.189,-0.037Z" clip-rule="evenodd" fill-rule="evenodd" fill="#FFFFFF" fill-opacity="0.6"/>
</g>
<defs>
<filter id="filter33_3552" x="-6.979385" y="-7.016494" width="404.521422" height="114.619254" filterUnits="userSpaceOnUse" color-interpolation-filters="sRGB">
<feFlood flood-opacity="0" result="BackgroundImageFix"/>
<feColorMatrix in="SourceAlpha" type="matrix" values="0 0 0 0 0 0 0 0 0 0 0 0 0 0 0 0 0 0 127 0" result="hardAlpha"/>
<feMorphology radius="0" operator="dilate" in="SourceAlpha" result="0dropshadow"/>
<feOffset dx="0" dy="5.583508"/>
<feGaussianBlur stdDeviation="3.489692"/>
<feComposite in2="hardAlpha" operator="out"/>
<feColorMatrix type="matrix" values="0 0 0 0 0 0 0 0 0 0 0 0 0 0 0 0 0 0 0.15 0"/>
<feBlend mode="normal" in2="BackgroundImageFix" result="0dropshadow"/>
<feBlend mode="normal" in="SourceGraphic" in2="0dropshadow" result="shape"/>
</filter>
</defs>
</svg>
