<svg width="696" height="204" viewBox="0 0 696 204" fill="none" xmlns="http://www.w3.org/2000/svg" xmlns:xlink="http://www.w3.org/1999/xlink">
<path d="M40,0C17.909,0 0,17.909 0,40L0,65.244C0.363,65.233 0.728,65.227 1.094,65.227C19.84,65.227 35.037,80.424 35.037,99.17C35.037,117.916 19.84,133.113 1.094,133.113C0.728,133.113 0.363,133.107 0,133.095L0,164C0,186.091 17.909,204 40,204L656,204C678.092,204 696,186.091 696,164L696,40C696,17.909 678.092,0 656,0L40,0Z" clip-rule="evenodd" fill-rule="evenodd" fill="#FFFFFF" fill-opacity="0.6" stroke="#000000" stroke-opacity="0.12" stroke-width="1" stroke-miterlimit="3.999327"/>
</svg>
