<svg width="782" height="202" viewBox="0 0 782 202" fill="none" xmlns="http://www.w3.org/2000/svg" xmlns:xlink="http://www.w3.org/1999/xlink">
<g filter="url(#filter33_3536)">
<path d="M32.189,0.642C14.412,0.642 0,15.054 0,32.831L0,65.081C0.356,65.07 0.713,65.064 1.072,65.064C19.442,65.064 34.334,79.956 34.334,98.326C34.334,116.697 19.442,131.589 1.072,131.589C0.713,131.589 0.356,131.583 0,131.572L0,169.774C0,187.551 14.412,201.962 32.189,201.962L748.936,201.962C766.714,201.962 781.126,187.551 781.126,169.774L781.126,32.831C781.126,15.054 766.714,0.642 748.936,0.642L32.189,0.642Z" clip-rule="evenodd" fill-rule="evenodd" fill="#FFFFFF" fill-opacity="0.6"/>
</g>
<defs>
<filter id="filter33_3536" x="-6.979385" y="-6.337448" width="404.521422" height="114.619254" filterUnits="userSpaceOnUse" color-interpolation-filters="sRGB">
<feFlood flood-opacity="0" result="BackgroundImageFix"/>
<feColorMatrix in="SourceAlpha" type="matrix" values="0 0 0 0 0 0 0 0 0 0 0 0 0 0 0 0 0 0 127 0" result="hardAlpha"/>
<feMorphology radius="0" operator="dilate" in="SourceAlpha" result="0dropshadow"/>
<feOffset dx="0" dy="5.583508"/>
<feGaussianBlur stdDeviation="3.489692"/>
<feComposite in2="hardAlpha" operator="out"/>
<feColorMatrix type="matrix" values="0 0 0 0 0 0 0 0 0 0 0 0 0 0 0 0 0 0 0.15 0"/>
<feBlend mode="normal" in2="BackgroundImageFix" result="0dropshadow"/>
<feBlend mode="normal" in="SourceGraphic" in2="0dropshadow" result="shape"/>
</filter>
</defs>
</svg>
