<svg width="10" height="10" viewBox="0 0 10 10" fill="none" xmlns="http://www.w3.org/2000/svg" xmlns:xlink="http://www.w3.org/1999/xlink">
<path d="M4.684,0.167C2.023,0.167 -0.149,2.338 -0.149,5L2.851,5C2.851,3.995 3.679,3.167 4.684,3.167L4.684,0.167ZM-0.149,5C-0.149,7.662 2.023,9.833 4.684,9.833L4.684,6.833C3.679,6.833 2.851,6.005 2.851,5L-0.149,5ZM4.684,9.833C7.346,9.833 9.518,7.662 9.518,5L6.518,5C6.518,6.005 5.689,6.833 4.684,6.833L4.684,9.833ZM9.518,5C9.518,2.338 7.346,0.167 4.684,0.167L4.684,3.167C5.689,3.167 6.518,3.995 6.518,5L9.518,5Z" transform="rotate(0 4.684 5)" fill="#C0C0D6"/>
</svg>
