<svg width="10" height="10" viewBox="0 0 10 10" fill="none" xmlns="http://www.w3.org/2000/svg" xmlns:xlink="http://www.w3.org/1999/xlink">
<path d="M4.769,0.167C2.107,0.167 -0.064,2.338 -0.064,5L2.936,5C2.936,3.995 3.764,3.167 4.769,3.167L4.769,0.167ZM-0.064,5C-0.064,7.662 2.107,9.833 4.769,9.833L4.769,6.833C3.764,6.833 2.936,6.005 2.936,5L-0.064,5ZM4.769,9.833C7.431,9.833 9.602,7.662 9.602,5L6.602,5C6.602,6.005 5.774,6.833 4.769,6.833L4.769,9.833ZM9.602,5C9.602,2.338 7.431,0.167 4.769,0.167L4.769,3.167C5.774,3.167 6.602,3.995 6.602,5L9.602,5Z" transform="rotate(0 4.769 5)" fill="#C0C0D6"/>
</svg>
