<svg width="10" height="10" viewBox="0 0 10 10" fill="none" xmlns="http://www.w3.org/2000/svg" xmlns:xlink="http://www.w3.org/1999/xlink">
<path d="M4.897,0.167C2.235,0.167 0.063,2.338 0.063,5L3.063,5C3.063,3.995 3.892,3.167 4.897,3.167L4.897,0.167ZM0.063,5C0.063,7.662 2.235,9.833 4.897,9.833L4.897,6.833C3.892,6.833 3.063,6.005 3.063,5L0.063,5ZM4.897,9.833C7.559,9.833 9.73,7.662 9.73,5L6.73,5C6.73,6.005 5.902,6.833 4.897,6.833L4.897,9.833ZM9.73,5C9.73,2.338 7.559,0.167 4.897,0.167L4.897,3.167C5.902,3.167 6.73,3.995 6.73,5L9.73,5Z" transform="rotate(0 4.897 5)" fill="#C0C0D6"/>
</svg>
