<svg width="10" height="10" viewBox="0 0 10 10" fill="none" xmlns="http://www.w3.org/2000/svg" xmlns:xlink="http://www.w3.org/1999/xlink">
<path d="M4.38,0.167C1.718,0.167 -0.454,2.338 -0.454,5L2.546,5C2.546,3.995 3.375,3.167 4.38,3.167L4.38,0.167ZM-0.454,5C-0.454,7.662 1.718,9.833 4.38,9.833L4.38,6.833C3.375,6.833 2.546,6.005 2.546,5L-0.454,5ZM4.38,9.833C7.041,9.833 9.213,7.662 9.213,5L6.213,5C6.213,6.005 5.385,6.833 4.38,6.833L4.38,9.833ZM9.213,5C9.213,2.338 7.041,0.167 4.38,0.167L4.38,3.167C5.385,3.167 6.213,3.995 6.213,5L9.213,5Z" transform="rotate(0 4.38 5)" fill="#C0C0D6"/>
</svg>
