<svg width="10" height="10" viewBox="0 0 10 10" fill="none" xmlns="http://www.w3.org/2000/svg" xmlns:xlink="http://www.w3.org/1999/xlink">
<path d="M5.106,0.167C2.445,0.167 0.273,2.338 0.273,5L3.273,5C3.273,3.995 4.101,3.167 5.106,3.167L5.106,0.167ZM0.273,5C0.273,7.662 2.445,9.833 5.106,9.833L5.106,6.833C4.101,6.833 3.273,6.005 3.273,5L0.273,5ZM5.106,9.833C7.768,9.833 9.94,7.662 9.94,5L6.94,5C6.94,6.005 6.111,6.833 5.106,6.833L5.106,9.833ZM9.94,5C9.94,2.338 7.768,0.167 5.106,0.167L5.106,3.167C6.111,3.167 6.94,3.995 6.94,5L9.94,5Z" transform="rotate(0 5.106 5)" fill="#C0C0D6"/>
</svg>
