<svg width="10" height="10" viewBox="0 0 10 10" fill="none" xmlns="http://www.w3.org/2000/svg" xmlns:xlink="http://www.w3.org/1999/xlink">
<path d="M4.899,0.167C2.237,0.167 0.065,2.338 0.065,5L3.065,5C3.065,3.995 3.894,3.167 4.899,3.167L4.899,0.167ZM0.065,5C0.065,7.662 2.237,9.833 4.899,9.833L4.899,6.833C3.894,6.833 3.065,6.005 3.065,5L0.065,5ZM4.899,9.833C7.561,9.833 9.732,7.662 9.732,5L6.732,5C6.732,6.005 5.904,6.833 4.899,6.833L4.899,9.833ZM9.732,5C9.732,2.338 7.561,0.167 4.899,0.167L4.899,3.167C5.904,3.167 6.732,3.995 6.732,5L9.732,5Z" transform="rotate(0 4.899 5)" fill="#C0C0D6"/>
</svg>
