<svg width="40" height="40" viewBox="0 0 40 40" fill="none" xmlns="http://www.w3.org/2000/svg" xmlns:xlink="http://www.w3.org/1999/xlink">
<path d="M20,0C8.98,0 0,8.98 0,20C0,31.02 8.98,40 20,40C31.02,40 40,31.02 40,20C40,8.98 31.02,0 20,0ZM25.58,21.06L18.52,28.12C18.22,28.42 17.84,28.56 17.46,28.56C17.08,28.56 16.7,28.42 16.4,28.12C15.82,27.54 15.82,26.58 16.4,26L22.4,20L16.4,14C15.82,13.42 15.82,12.46 16.4,11.88C16.98,11.3 17.94,11.3 18.52,11.88L25.58,18.94C26.18,19.52 26.18,20.48 25.58,21.06Z" fill="#C0C0D6"/>
</svg>
