<svg width="30" height="30" viewBox="0 0 30 30" fill="none" xmlns="http://www.w3.org/2000/svg" xmlns:xlink="http://www.w3.org/1999/xlink">
<path d="M24.716,9.333L4.883,9.333C4.104,9.333 3.466,8.696 3.466,7.917C3.466,7.137 4.104,6.5 4.883,6.5L24.716,6.5C25.495,6.5 26.133,7.137 26.133,7.917C26.133,8.696 25.495,9.333 24.716,9.333ZM21.883,0.833L7.716,0.833C6.937,0.833 6.299,1.471 6.299,2.25C6.299,3.029 6.937,3.667 7.716,3.667L21.883,3.667C22.662,3.667 23.299,3.029 23.299,2.25C23.299,1.471 22.662,0.833 21.883,0.833ZM28.966,15L28.966,26.333C28.966,27.892 27.691,29.167 26.133,29.167L3.466,29.167C1.908,29.167 0.633,27.892 0.633,26.333L0.633,15C0.633,13.442 1.908,12.167 3.466,12.167L26.133,12.167C27.691,12.167 28.966,13.442 28.966,15ZM19.319,20.043L11.966,16.034L11.966,25.285L19.319,21.29C19.814,21.021 19.814,20.312 19.319,20.043Z" fill="#FFFFFF" fill-opacity="0.8"/>
</svg>
