<svg width="10" height="10" viewBox="0 0 10 10" fill="none" xmlns="http://www.w3.org/2000/svg" xmlns:xlink="http://www.w3.org/1999/xlink">
<path d="M4.018,0.167C1.356,0.167 -0.815,2.338 -0.815,5L2.185,5C2.185,3.995 3.013,3.167 4.018,3.167L4.018,0.167ZM-0.815,5C-0.815,7.662 1.356,9.833 4.018,9.833L4.018,6.833C3.013,6.833 2.185,6.005 2.185,5L-0.815,5ZM4.018,9.833C6.68,9.833 8.851,7.662 8.851,5L5.851,5C5.851,6.005 5.023,6.833 4.018,6.833L4.018,9.833ZM8.851,5C8.851,2.338 6.68,0.167 4.018,0.167L4.018,3.167C5.023,3.167 5.851,3.995 5.851,5L8.851,5Z" transform="rotate(0 4.018 5)" fill="#C0C0D6"/>
</svg>
