<svg width="28" height="30" viewBox="0 0 28 30" fill="none" xmlns="http://www.w3.org/2000/svg" xmlns:xlink="http://www.w3.org/1999/xlink">
<path d="M23.355,9.333L3.522,9.333C2.743,9.333 2.105,8.696 2.105,7.917C2.105,7.137 2.743,6.5 3.522,6.5L23.355,6.5C24.134,6.5 24.772,7.137 24.772,7.917C24.772,8.696 24.134,9.333 23.355,9.333ZM20.522,0.833L6.355,0.833C5.576,0.833 4.939,1.471 4.939,2.25C4.939,3.029 5.576,3.667 6.355,3.667L20.522,3.667C21.301,3.667 21.939,3.029 21.939,2.25C21.939,1.471 21.301,0.833 20.522,0.833ZM27.605,15L27.605,26.333C27.605,27.892 26.33,29.167 24.772,29.167L2.105,29.167C0.547,29.167 -0.728,27.892 -0.728,26.333L-0.728,15C-0.728,13.442 0.547,12.167 2.105,12.167L24.772,12.167C26.33,12.167 27.605,13.442 27.605,15ZM17.958,20.043L10.605,16.034L10.605,25.285L17.958,21.29C18.454,21.021 18.454,20.312 17.958,20.043Z" fill="#FFFFFF" fill-opacity="0.8"/>
</svg>
