<svg width="12" height="10" viewBox="0 0 12 10" fill="none" xmlns="http://www.w3.org/2000/svg" xmlns:xlink="http://www.w3.org/1999/xlink">
<path d="M5.435,0.167C2.774,0.167 0.602,2.338 0.602,5L3.602,5C3.602,3.995 4.43,3.167 5.435,3.167L5.435,0.167ZM0.602,5C0.602,7.662 2.774,9.833 5.435,9.833L5.435,6.833C4.43,6.833 3.602,6.005 3.602,5L0.602,5ZM5.435,9.833C8.097,9.833 10.269,7.662 10.269,5L7.269,5C7.269,6.005 6.44,6.833 5.435,6.833L5.435,9.833ZM10.269,5C10.269,2.338 8.097,0.167 5.435,0.167L5.435,3.167C6.44,3.167 7.269,3.995 7.269,5L10.269,5Z" transform="rotate(0 5.435 5)" fill="#C0C0D6"/>
</svg>
