<svg width="40" height="40" viewBox="0 0 40 40" fill="none" xmlns="http://www.w3.org/2000/svg" xmlns:xlink="http://www.w3.org/1999/xlink">
<path d="M28.38,0L11.62,0C4.34,0 0,4.34 0,11.62L0,28.36C0,35.66 4.34,40 11.62,40L28.36,40C35.64,40 39.98,35.66 39.98,28.38L39.98,11.62C40,4.34 35.66,0 28.38,0ZM25.58,21.06L18.52,28.12C18.22,28.42 17.84,28.56 17.46,28.56C17.08,28.56 16.7,28.42 16.4,28.12C15.82,27.54 15.82,26.58 16.4,26L22.4,20L16.4,14C15.82,13.42 15.82,12.46 16.4,11.88C16.98,11.3 17.94,11.3 18.52,11.88L25.58,18.94C26.18,19.52 26.18,20.48 25.58,21.06Z" fill="#C0C0D6"/>
</svg>
