<svg width="10" height="10" viewBox="0 0 10 10" fill="none" xmlns="http://www.w3.org/2000/svg" xmlns:xlink="http://www.w3.org/1999/xlink">
<path d="M4.713,0.167C2.051,0.167 -0.12,2.338 -0.12,5L2.88,5C2.88,3.995 3.708,3.167 4.713,3.167L4.713,0.167ZM-0.12,5C-0.12,7.662 2.051,9.833 4.713,9.833L4.713,6.833C3.708,6.833 2.88,6.005 2.88,5L-0.12,5ZM4.713,9.833C7.375,9.833 9.547,7.662 9.547,5L6.547,5C6.547,6.005 5.718,6.833 4.713,6.833L4.713,9.833ZM9.547,5C9.547,2.338 7.375,0.167 4.713,0.167L4.713,3.167C5.718,3.167 6.547,3.995 6.547,5L9.547,5Z" transform="rotate(0 4.713 5)" fill="#C0C0D6"/>
</svg>
