<svg width="16" height="10" viewBox="0 0 16 10" fill="none" xmlns="http://www.w3.org/2000/svg" xmlns:xlink="http://www.w3.org/1999/xlink">
<path d="M2.3,0.862C1.854,0.416 1.132,0.416 0.686,0.862C0.241,1.307 0.241,2.03 0.686,2.475L2.3,0.862ZM8.156,8.331L7.349,9.138C7.563,9.352 7.853,9.472 8.156,9.472C8.458,9.472 8.748,9.352 8.962,9.138L8.156,8.331ZM15.625,2.475C16.07,2.03 16.07,1.307 15.625,0.862C15.179,0.416 14.457,0.416 14.011,0.862L15.625,2.475ZM0.686,2.475L7.349,9.138L8.962,7.524L2.3,0.862L0.686,2.475ZM8.962,9.138L15.625,2.475L14.011,0.862L7.349,7.524L8.962,9.138Z" fill="#FFFFFF" fill-opacity="0.6"/>
</svg>
